<svg width="600" height="600" viewBox="-300 -300 600 600" xmlns="http://www.w3.org/2000/svg">
  <line x1="-1.4210854715202004e-14" y1="-250" x2="1.4210854715202004e-14" y2="-250" fill="none" stroke="black" stroke-width="1"/>
  <ellipse cx="0.007506876792952309" cy="-249.03738424614357" rx="3.050273327395453" ry="24.513903129055954" transform="rotate(89.81894890169238 0.007506876792952309 -249.03738424614357)" fill="none" stroke="black" stroke-width="1"/>
  <ellipse cx="0.029752250882124038" cy="-245.1457860299645" rx="5.976299420003357" ry="48.802574265528136" transform="rotate(89.82186621561632 0.029752250882124038 -245.1457860299645)" fill="none" stroke="black" stroke-width="1"/>
  <ellipse cx="0.0659189745026628" cy="-239.315092698082" rx="8.68093274539914" ry="72.64204084729408" transform="rotate(89.82622928130114 0.0659189745026628 -239.315092698082)" fill="none" stroke="black" stroke-width="1"/>
  <ellipse cx="0.11467381348683532" cy="-231.52979301819207" rx="11.071812700244033" ry="95.81090621131861" transform="rotate(89.83204035335667 0.11467381348683532 -231.52979301819207)" fill="none" stroke="black" stroke-width="1"/>
  <ellipse cx="0.1742102544869636" cy="-220.76652511965668" rx="13.004449954941213" ry="118.09178035656514" transform="rotate(89.84004741516362 0.1742102544869636 -220.76652511965668)" fill="none" stroke="black" stroke-width="1"/>
  <ellipse cx="0.24230788344561918" cy="-209.00800079421185" rx="14.510222241824254" ry="139.27289200122658" transform="rotate(89.84876169773906 0.24230788344561918 -209.00800079421185)" fill="none" stroke="black" stroke-width="1"/>
  <ellipse cx="0.3164075272450023" cy="-194.22133305191372" rx="15.396701750375854" ry="159.14984483449794" transform="rotate(89.85967356388906 0.3164075272450023 -194.22133305191372)" fill="none" stroke="black" stroke-width="1"/>
  <ellipse cx="0.3937007873986819" cy="-178.3937007874037" rx="15.76292106047864" ry="177.52763388469128" transform="rotate(89.87130091251728 0.3937007873986819 -178.3937007874037)" fill="none" stroke="black" stroke-width="1"/>
  <ellipse cx="0.47123188230241964" cy="-160.4985173814082" rx="15.503457869565574" ry="194.22277606240422" transform="rotate(89.88438737987018 0.47123188230241964 -160.4985173814082)" fill="none" stroke="black" stroke-width="1"/>
  <ellipse cx="0.5460088203887098" cy="-140.5179045197662" rx="14.59991177119815" ry="209.0656344550963" transform="rotate(89.8989322250858 0.5460088203887098 -140.5179045197662)" fill="none" stroke="black" stroke-width="1"/>
  <ellipse cx="0.6151201108332738" cy="-119.451683461538" rx="13.164193988937688" ry="221.9028014107473" transform="rotate(89.91420123343872 0.6151201108332738 -119.451683461538)" fill="none" stroke="black" stroke-width="1"/>
  <ellipse cx="0.6758522740817542" cy="-97.29763636587866" rx="11.232846381028862" ry="232.59946563905365" transform="rotate(89.93019705556925 0.6758522740817542 -97.29763636587866)" fill="none" stroke="black" stroke-width="1"/>
  <ellipse cx="0.7258028633089686" cy="-74.0596721804337" rx="8.856024912562033" ry="241.04168891476036" transform="rotate(89.94692064228103 0.7258028633089686 -74.0596721804337)" fill="none" stroke="black" stroke-width="1"/>
  <ellipse cx="0.7629833172952187" cy="-49.74772365094633" rx="6.097044113701301" ry="247.13846381204212" transform="rotate(89.96437173105501 0.7629833172952187 -49.74772365094633)" fill="none" stroke="black" stroke-width="1"/>
  <ellipse cx="0.7859060560549334" cy="-25.392953027998775" rx="3.1578325437286625" ry="250.82345138029308" transform="rotate(89.98182229419781 0.7859060560549334 -25.392953027998775)" fill="none" stroke="black" stroke-width="1"/>
  <line x1="-250" y1="-5.78970667932297e-16" x2="250" y2="-1.3560314805409588e-15" fill="none" stroke="black" stroke-width="2"/>
  <ellipse cx="0.785906056053675" cy="25.39295302799852" rx="3.1578325437286754" ry="250.8234513802771" transform="rotate(-89.9818222941979 0.785906056053675 25.39295302799852)" fill="none" stroke="black" stroke-width="1"/>
  <ellipse cx="0.762983317291928" cy="49.7477236509462" rx="6.097044113700764" ry="247.13846381200855" transform="rotate(-89.96437173105498 0.762983317291928 49.7477236509462)" fill="none" stroke="black" stroke-width="1"/>
  <ellipse cx="0.7258028633222825" cy="74.05967218043386" rx="8.85602491256251" ry="241.04168891477372" transform="rotate(-89.94692064228109 0.7258028633222825 74.05967218043386)" fill="none" stroke="black" stroke-width="1"/>
  <ellipse cx="0.6758522740862943" cy="97.2976363658783" rx="11.232846381028073" ry="232.5994656390358" transform="rotate(-89.93019705556911 0.6758522740862943 97.2976363658783)" fill="none" stroke="black" stroke-width="1"/>
  <ellipse cx="0.6151201108270832" cy="119.45168346153781" rx="13.164193988937669" ry="221.90280141072904" transform="rotate(-89.91420123343876 0.6151201108270832 119.45168346153781)" fill="none" stroke="black" stroke-width="1"/>
  <ellipse cx="0.5460088203887098" cy="140.5179045197662" rx="14.59991177119815" ry="209.0656344550963" transform="rotate(-89.8989322250858 0.5460088203887098 140.5179045197662)" fill="none" stroke="black" stroke-width="1"/>
  <ellipse cx="0.47123188230241964" cy="160.4985173814082" rx="15.503457869565574" ry="194.22277606240422" transform="rotate(-89.88438737987018 0.47123188230241964 160.4985173814082)" fill="none" stroke="black" stroke-width="1"/>
  <ellipse cx="0.3937007873986819" cy="178.3937007874037" rx="15.76292106047864" ry="177.52763388469128" transform="rotate(-89.87130091251728 0.3937007873986819 178.3937007874037)" fill="none" stroke="black" stroke-width="1"/>
  <ellipse cx="0.3164075272450023" cy="194.22133305191372" rx="15.396701750375854" ry="159.14984483449794" transform="rotate(-89.85967356388906 0.3164075272450023 194.22133305191372)" fill="none" stroke="black" stroke-width="1"/>
  <ellipse cx="0.24230788344561918" cy="209.00800079421185" rx="14.510222241824254" ry="139.27289200122658" transform="rotate(-89.84876169773906 0.24230788344561918 209.00800079421185)" fill="none" stroke="black" stroke-width="1"/>
  <ellipse cx="0.1742102544869636" cy="220.76652511965668" rx="13.004449954941213" ry="118.09178035656514" transform="rotate(-89.84004741516362 0.1742102544869636 220.76652511965668)" fill="none" stroke="black" stroke-width="1"/>
  <ellipse cx="0.11467381348683532" cy="231.52979301819207" rx="11.071812700244033" ry="95.81090621131861" transform="rotate(-89.83204035335667 0.11467381348683532 231.52979301819207)" fill="none" stroke="black" stroke-width="1"/>
  <ellipse cx="0.0659189745026628" cy="239.315092698082" rx="8.68093274539914" ry="72.64204084729408" transform="rotate(-89.82622928130114 0.0659189745026628 239.315092698082)" fill="none" stroke="black" stroke-width="1"/>
  <ellipse cx="0.029752250882124038" cy="245.1457860299645" rx="5.976299420003357" ry="48.802574265528136" transform="rotate(-89.82186621561632 0.029752250882124038 245.1457860299645)" fill="none" stroke="black" stroke-width="1"/>
  <ellipse cx="0.007506876792952309" cy="249.03738424614357" rx="3.050273327395453" ry="24.513903129055954" transform="rotate(-89.81894890169238 0.007506876792952309 249.03738424614357)" fill="none" stroke="black" stroke-width="1"/>
  <line x1="-1.4210854715202004e-14" y1="250" x2="1.4210854715202004e-14" y2="250" fill="none" stroke="black" stroke-width="1"/>
  <ellipse cx="3.3881317890171986e-15" cy="-1.3552527156068805e-14" rx="250" ry="250" transform="rotate(45 3.3881317890171986e-15 -1.3552527156068805e-14)" fill="none" stroke="black" stroke-width="1"/>
  <ellipse cx="-3.041237066952256" cy="5.1662460804596564e-15" rx="250.01876648748038" ry="248.220836211036" transform="rotate(89.99999999999793 -3.041237066952256 5.1662460804596564e-15)" fill="none" stroke="black" stroke-width="1"/>
  <ellipse cx="-5.953234408921982" cy="-1.4813173577840025e-14" rx="250.07436956586798" ry="244.12218289044145" transform="rotate(89.99999999999977 -5.953234408921982 -1.4813173577840025e-14)" fill="none" stroke="black" stroke-width="1"/>
  <ellipse cx="-8.626310485193759" cy="3.5368924839105946e-14" rx="250.1647431556196" ry="237.7338154195983" transform="rotate(89.99999999999946 -8.626310485193759 3.5368924839105946e-14)" fill="none" stroke="black" stroke-width="1"/>
  <ellipse cx="-10.95920921480463" cy="-2.8358328163516644e-14" rx="250.28652034583544" ry="229.10235015033095" transform="rotate(89.99999999999987 -10.95920921480463 -2.8358328163516644e-14)" fill="none" stroke="black" stroke-width="1"/>
  <ellipse cx="-12.862768229241599" cy="2.640724061065177e-15" rx="250.43514693046615" ry="218.29201985315294" transform="rotate(89.9999999999998 -12.862768229241599 2.640724061065177e-15)" fill="none" stroke="black" stroke-width="1"/>
  <ellipse cx="-14.263267091602248" cy="1.1585758945957612e-13" rx="250.60503756714192" ry="205.38561994697653" transform="rotate(-89.99999999999919 -14.263267091602248 1.1585758945957612e-13)" fill="none" stroke="black" stroke-width="1"/>
  <ellipse cx="-15.10533993130627" cy="2.916702463029615e-14" rx="250.78977133846942" ry="190.48549609059017" transform="rotate(-89.9999999999999 -15.10533993130627 2.916702463029615e-14)" fill="none" stroke="black" stroke-width="1"/>
  <ellipse cx="-15.354330708661497" cy="5.707384698433254e-14" rx="250.9823220552634" ry="173.7144218348054" transform="rotate(89.99999999999984 -15.354330708661497 5.707384698433254e-14)" fill="none" stroke="black" stroke-width="1"/>
  <ellipse cx="-14.997968529256877" cy="6.119167772918272e-14" rx="251.1753169624419" ry="155.21620401393434" transform="rotate(-89.9999999999999 -14.997968529256877 6.119167772918272e-14)" fill="none" stroke="black" stroke-width="1"/>
  <ellipse cx="-14.047248367123897" cy="1.9832244692694674e-13" rx="251.3613156893379" ry="135.15585569722595" transform="rotate(-89.9999999999999 -14.047248367123897 1.9832244692694674e-13)" fill="none" stroke="black" stroke-width="1"/>
  <ellipse cx="-12.536421856426154" cy="-1.5634069939639554e-13" rx="251.53309948896668" ry="113.71919343107521" transform="rotate(-89.9999999999999 -12.536421856426154 -1.5634069939639554e-13)" fill="none" stroke="black" stroke-width="1"/>
  <ellipse cx="-10.522034846500835" cy="2.3817994516191235e-13" rx="251.6839592472567" ry="91.11174759245851" transform="rotate(-89.9999999999998 -10.522034846500835 2.3817994516191235e-13)" fill="none" stroke="black" stroke-width="1"/>
  <ellipse cx="-8.080992798212812" cy="5.4244410408563456e-14" rx="251.80796964976832" ry="67.55692071046072" transform="rotate(-90 -8.080992798212812 5.4244410408563456e-14)" fill="none" stroke="black" stroke-width="1"/>
  <ellipse cx="-5.307689399256386" cy="2.0161006833724657e-13" rx="251.90023649574698" ry="43.293385455981216" transform="rotate(-89.99999999999997 -5.307689399256386 2.0161006833724657e-13)" fill="none" stroke="black" stroke-width="1"/>
  <ellipse cx="-2.3102935584855797" cy="-7.068239680792041e-14" rx="251.9571046229828" ry="18.571776648630713" transform="rotate(90 -2.3102935584855797 -7.068239680792041e-14)" fill="none" stroke="black" stroke-width="1"/>
  <ellipse cx="0.793650793650787" cy="3.39888776295067e-14" rx="251.97631533948737" ry="6.349206349206331" transform="rotate(-90 0.793650793650787 3.39888776295067e-14)" fill="none" stroke="black" stroke-width="2"/>
</svg>