<svg width="600" height="600" viewBox="-300 -300 600 600" xmlns="http://www.w3.org/2000/svg">
  <ellipse cx="Infinity" cy="NaN" rx="Infinity" ry="Infinity" transform="rotate(0 Infinity NaN)" fill="none" stroke="black" stroke-width="1"/>
  <ellipse cx="0.029752250882124038" cy="-245.1457860299645" rx="5.976299420003357" ry="48.802574265528136" transform="rotate(89.82186621561632 0.029752250882124038 -245.1457860299645)" fill="none" stroke="black" stroke-width="1"/>
  <ellipse cx="0.11467381348683532" cy="-231.52979301819207" rx="11.071812700244033" ry="95.81090621131861" transform="rotate(89.83204035335667 0.11467381348683532 -231.52979301819207)" fill="none" stroke="black" stroke-width="1"/>
  <ellipse cx="0.24230788344561918" cy="-209.00800079421185" rx="14.510222241824254" ry="139.27289200122658" transform="rotate(89.84876169773906 0.24230788344561918 -209.00800079421185)" fill="none" stroke="black" stroke-width="1"/>
  <ellipse cx="0.3937007873986819" cy="-178.3937007874037" rx="15.76292106047864" ry="177.52763388469128" transform="rotate(89.87130091251728 0.3937007873986819 -178.3937007874037)" fill="none" stroke="black" stroke-width="1"/>
  <ellipse cx="0.5460088203887098" cy="-140.5179045197662" rx="14.59991177119815" ry="209.0656344550963" transform="rotate(89.8989322250858 0.5460088203887098 -140.5179045197662)" fill="none" stroke="black" stroke-width="1"/>
  <ellipse cx="0.6758522740817542" cy="-97.29763636587866" rx="11.232846381028862" ry="232.59946563905365" transform="rotate(89.93019705556925 0.6758522740817542 -97.29763636587866)" fill="none" stroke="black" stroke-width="1"/>
  <ellipse cx="0.7629833172952187" cy="-49.74772365094633" rx="6.097044113701301" ry="247.13846381204212" transform="rotate(89.96437173105501 0.7629833172952187 -49.74772365094633)" fill="none" stroke="black" stroke-width="1"/>
  <ellipse cx="0.018014281306596942" cy="22627405447785.047" rx="NaN" ry="218.1627342692313" transform="rotate(-89.99999999999855 0.018014281306596942 22627405447785.047)" fill="none" stroke="black" stroke-width="1"/>
  <ellipse cx="0.762983317291928" cy="49.7477236509462" rx="6.097044113700764" ry="247.13846381200855" transform="rotate(-89.96437173105498 0.762983317291928 49.7477236509462)" fill="none" stroke="black" stroke-width="1"/>
  <ellipse cx="0.6758522740862943" cy="97.2976363658783" rx="11.232846381028073" ry="232.5994656390358" transform="rotate(-89.93019705556911 0.6758522740862943 97.2976363658783)" fill="none" stroke="black" stroke-width="1"/>
  <ellipse cx="0.5460088203887098" cy="140.5179045197662" rx="14.59991177119815" ry="209.0656344550963" transform="rotate(-89.8989322250858 0.5460088203887098 140.5179045197662)" fill="none" stroke="black" stroke-width="1"/>
  <ellipse cx="0.3937007873986819" cy="178.3937007874037" rx="15.76292106047864" ry="177.52763388469128" transform="rotate(-89.87130091251728 0.3937007873986819 178.3937007874037)" fill="none" stroke="black" stroke-width="1"/>
  <ellipse cx="0.24230788344561918" cy="209.00800079421185" rx="14.510222241824254" ry="139.27289200122658" transform="rotate(-89.84876169773906 0.24230788344561918 209.00800079421185)" fill="none" stroke="black" stroke-width="1"/>
  <ellipse cx="0.11467381348683532" cy="231.52979301819207" rx="11.071812700244033" ry="95.81090621131861" transform="rotate(-89.83204035335667 0.11467381348683532 231.52979301819207)" fill="none" stroke="black" stroke-width="1"/>
  <ellipse cx="0.029752250882124038" cy="245.1457860299645" rx="5.976299420003357" ry="48.802574265528136" transform="rotate(-89.82186621561632 0.029752250882124038 245.1457860299645)" fill="none" stroke="black" stroke-width="1"/>
  <ellipse cx="Infinity" cy="NaN" rx="Infinity" ry="Infinity" transform="rotate(0 Infinity NaN)" fill="none" stroke="black" stroke-width="1"/>
  <ellipse cx="3.3881317890171986e-15" cy="-1.3552527156068805e-14" rx="250" ry="250" transform="rotate(45 3.3881317890171986e-15 -1.3552527156068805e-14)" fill="none" stroke="black" stroke-width="1"/>
  <ellipse cx="-8.979513189819187" cy="3.096855757128491e-14" rx="250.18017063897338" ry="236.64668902675504" transform="rotate(-89.99999999999997 -8.979513189819187 3.096855757128491e-14)" fill="none" stroke="black" stroke-width="1"/>
  <ellipse cx="-14.560315067930556" cy="-7.034533568938833e-14" rx="250.65614079477703" ry="201.36353540078207" transform="rotate(-89.99999999999977 -14.560315067930556 -7.034533568938833e-14)" fill="none" stroke="black" stroke-width="1"/>
  <ellipse cx="-14.665274775469028" cy="1.1788685729793427e-14" rx="251.2556069880627" ry="146.87554221096113" transform="rotate(89.99999999999999 -14.665274775469028 1.1788685729793427e-14)" fill="none" stroke="black" stroke-width="1"/>
  <ellipse cx="-9.186202213277323" cy="-2.6260928779903683e-14" rx="251.757832286343" ry="77.87233424921462" transform="rotate(89.99999999999999 -9.186202213277323 -2.6260928779903683e-14)" fill="none" stroke="black" stroke-width="1"/>
  <ellipse cx="-0.11668021133323223" cy="-2.966045738323553e-13" rx="251.9746719473879" ry="0.9338254692336113" transform="rotate(90 -0.11668021133323223 -2.966045738323553e-13)" fill="none" stroke="black" stroke-width="1"/>
  <ellipse cx="9.146994263189145" cy="7.206842177310477e-15" rx="251.8239837428737" ry="76.1358688568393" transform="rotate(-89.99999999999993 9.146994263189145 7.206842177310477e-15)" fill="none" stroke="black" stroke-width="1"/>
  <ellipse cx="15.12956403527818" cy="1.1399657762479495e-13" rx="251.36290892978533" ry="145.4849563922485" transform="rotate(89.99999999999959 15.12956403527818 1.1399657762479495e-13)" fill="none" stroke="black" stroke-width="1"/>
  <line x1="-250" y1="0" x2="250" y2="0" stroke="black" stroke-width="3"/>
  <line x1="0" y1="-250" x2="0" y2="250" transform="rotate(0 0 0)" stroke="black" stroke-width="3"/>
</svg>