<svg width="600" height="600" viewBox="-300 -300 600 600" xmlns="http://www.w3.org/2000/svg">
  <line x1="-1.4210854715202004e-14" y1="-250" x2="1.4210854715202004e-14" y2="-250" fill="none" stroke="black" stroke-width="1"/>
  <ellipse cx="0.007506876792952309" cy="-249.03738424614357" rx="3.050273327395453" ry="24.513903129055954" transform="rotate(89.81894890169238 0.007506876792952309 -249.03738424614357)" fill="none" stroke="black" stroke-width="1" clip-path="{"A":50,"B":0,"C":2000,"D":0,"direction":[0.9996876464081227,-1.5303303454010732e-18,-0.024992191160203066]} M -10000,NaN 10000,NaN 10000,-10000 -10000,-10000 Z"/>
  <ellipse cx="0.029752250882124038" cy="-245.1457860299645" rx="5.976299420003357" ry="48.802574265528136" transform="rotate(89.82186621561632 0.029752250882124038 -245.1457860299645)" fill="none" stroke="black" stroke-width="1" clip-path="{"A":50,"B":0,"C":2000,"D":0,"direction":[0.9996876464081227,-1.5303303454010732e-18,-0.024992191160203066]} M -10000,NaN 10000,NaN 10000,-10000 -10000,-10000 Z"/>
  <ellipse cx="0.0659189745026628" cy="-239.315092698082" rx="8.68093274539914" ry="72.64204084729408" transform="rotate(89.82622928130114 0.0659189745026628 -239.315092698082)" fill="none" stroke="black" stroke-width="1" clip-path="{"A":50,"B":0,"C":2000,"D":0,"direction":[0.9996876464081227,-1.5303303454010732e-18,-0.024992191160203066]} M -10000,NaN 10000,NaN 10000,-10000 -10000,-10000 Z"/>
  <ellipse cx="0.11467381348683532" cy="-231.52979301819207" rx="11.071812700244033" ry="95.81090621131861" transform="rotate(89.83204035335667 0.11467381348683532 -231.52979301819207)" fill="none" stroke="black" stroke-width="1" clip-path="{"A":50,"B":0,"C":2000,"D":0,"direction":[0.9996876464081227,-1.5303303454010732e-18,-0.024992191160203066]} M -10000,NaN 10000,NaN 10000,-10000 -10000,-10000 Z"/>
  <ellipse cx="0.1742102544869636" cy="-220.76652511965668" rx="13.004449954941213" ry="118.09178035656514" transform="rotate(89.84004741516362 0.1742102544869636 -220.76652511965668)" fill="none" stroke="black" stroke-width="1" clip-path="{"A":50,"B":0,"C":2000,"D":0,"direction":[0.9996876464081227,-1.5303303454010732e-18,-0.024992191160203066]} M -10000,NaN 10000,NaN 10000,-10000 -10000,-10000 Z"/>
  <ellipse cx="0.24230788344561918" cy="-209.00800079421185" rx="14.510222241824254" ry="139.27289200122658" transform="rotate(89.84876169773906 0.24230788344561918 -209.00800079421185)" fill="none" stroke="black" stroke-width="1" clip-path="{"A":50,"B":0,"C":2000,"D":0,"direction":[0.9996876464081227,-1.5303303454010732e-18,-0.024992191160203066]} M -10000,NaN 10000,NaN 10000,-10000 -10000,-10000 Z"/>
  <ellipse cx="0.3164075272450023" cy="-194.22133305191372" rx="15.396701750375854" ry="159.14984483449794" transform="rotate(89.85967356388906 0.3164075272450023 -194.22133305191372)" fill="none" stroke="black" stroke-width="1" clip-path="{"A":50,"B":0,"C":2000,"D":0,"direction":[0.9996876464081227,-1.5303303454010732e-18,-0.024992191160203066]} M -10000,NaN 10000,NaN 10000,-10000 -10000,-10000 Z"/>
  <ellipse cx="0.3937007873986819" cy="-178.3937007874037" rx="15.76292106047864" ry="177.52763388469128" transform="rotate(89.87130091251728 0.3937007873986819 -178.3937007874037)" fill="none" stroke="black" stroke-width="1" clip-path="{"A":50,"B":0,"C":2000,"D":0,"direction":[0.9996876464081227,-1.5303303454010732e-18,-0.024992191160203066]} M -10000,NaN 10000,NaN 10000,-10000 -10000,-10000 Z"/>
  <ellipse cx="0.47123188230241964" cy="-160.4985173814082" rx="15.503457869565574" ry="194.22277606240422" transform="rotate(89.88438737987018 0.47123188230241964 -160.4985173814082)" fill="none" stroke="black" stroke-width="1" clip-path="{"A":50,"B":0,"C":2000,"D":0,"direction":[0.9996876464081227,-1.5303303454010732e-18,-0.024992191160203066]} M -10000,NaN 10000,NaN 10000,-10000 -10000,-10000 Z"/>
  <ellipse cx="0.5460088203887098" cy="-140.5179045197662" rx="14.59991177119815" ry="209.0656344550963" transform="rotate(89.8989322250858 0.5460088203887098 -140.5179045197662)" fill="none" stroke="black" stroke-width="1" clip-path="{"A":50,"B":0,"C":2000,"D":0,"direction":[0.9996876464081227,-1.5303303454010732e-18,-0.024992191160203066]} M -10000,NaN 10000,NaN 10000,-10000 -10000,-10000 Z"/>
  <ellipse cx="0.6151201108332738" cy="-119.451683461538" rx="13.164193988937688" ry="221.9028014107473" transform="rotate(89.91420123343872 0.6151201108332738 -119.451683461538)" fill="none" stroke="black" stroke-width="1" clip-path="{"A":50,"B":0,"C":2000,"D":0,"direction":[0.9996876464081227,-1.5303303454010732e-18,-0.024992191160203066]} M -10000,NaN 10000,NaN 10000,-10000 -10000,-10000 Z"/>
  <ellipse cx="0.6758522740817542" cy="-97.29763636587866" rx="11.232846381028862" ry="232.59946563905365" transform="rotate(89.93019705556925 0.6758522740817542 -97.29763636587866)" fill="none" stroke="black" stroke-width="1" clip-path="{"A":50,"B":0,"C":2000,"D":0,"direction":[0.9996876464081227,-1.5303303454010732e-18,-0.024992191160203066]} M -10000,NaN 10000,NaN 10000,-10000 -10000,-10000 Z"/>
  <ellipse cx="0.7258028633089686" cy="-74.0596721804337" rx="8.856024912562033" ry="241.04168891476036" transform="rotate(89.94692064228103 0.7258028633089686 -74.0596721804337)" fill="none" stroke="black" stroke-width="1" clip-path="{"A":50,"B":0,"C":2000,"D":0,"direction":[0.9996876464081227,-1.5303303454010732e-18,-0.024992191160203066]} M -10000,NaN 10000,NaN 10000,-10000 -10000,-10000 Z"/>
  <ellipse cx="0.7629833172952187" cy="-49.74772365094633" rx="6.097044113701301" ry="247.13846381204212" transform="rotate(89.96437173105501 0.7629833172952187 -49.74772365094633)" fill="none" stroke="black" stroke-width="1" clip-path="{"A":50,"B":0,"C":2000,"D":0,"direction":[0.9996876464081227,-1.5303303454010732e-18,-0.024992191160203066]} M -10000,NaN 10000,NaN 10000,-10000 -10000,-10000 Z"/>
  <ellipse cx="0.7859060560549334" cy="-25.392953027998775" rx="3.1578325437286625" ry="250.82345138029308" transform="rotate(89.98182229419781 0.7859060560549334 -25.392953027998775)" fill="none" stroke="black" stroke-width="1" clip-path="{"A":50,"B":0,"C":2000,"D":0,"direction":[0.9996876464081227,-1.5303303454010732e-18,-0.024992191160203066]} M -10000,NaN 10000,NaN 10000,-10000 -10000,-10000 Z"/>
  <line x1="-250" y1="-5.78970667932297e-16" x2="250" y2="-1.3560314805409588e-15" fill="none" stroke="black" stroke-width="2"/>
  <ellipse cx="0.785906056053675" cy="25.39295302799852" rx="3.1578325437286754" ry="250.8234513802771" transform="rotate(-89.9818222941979 0.785906056053675 25.39295302799852)" fill="none" stroke="black" stroke-width="1" clip-path="{"A":50,"B":0,"C":2000,"D":0,"direction":[0.9996876464081227,-1.5303303454010732e-18,-0.024992191160203066]} M -10000,NaN 10000,NaN 10000,-10000 -10000,-10000 Z"/>
  <ellipse cx="0.762983317291928" cy="49.7477236509462" rx="6.097044113700764" ry="247.13846381200855" transform="rotate(-89.96437173105498 0.762983317291928 49.7477236509462)" fill="none" stroke="black" stroke-width="1" clip-path="{"A":50,"B":0,"C":2000,"D":0,"direction":[0.9996876464081227,-1.5303303454010732e-18,-0.024992191160203066]} M -10000,NaN 10000,NaN 10000,-10000 -10000,-10000 Z"/>
  <ellipse cx="0.7258028633222825" cy="74.05967218043386" rx="8.85602491256251" ry="241.04168891477372" transform="rotate(-89.94692064228109 0.7258028633222825 74.05967218043386)" fill="none" stroke="black" stroke-width="1" clip-path="{"A":50,"B":0,"C":2000,"D":0,"direction":[0.9996876464081227,-1.5303303454010732e-18,-0.024992191160203066]} M -10000,NaN 10000,NaN 10000,-10000 -10000,-10000 Z"/>
  <ellipse cx="0.6758522740862943" cy="97.2976363658783" rx="11.232846381028073" ry="232.5994656390358" transform="rotate(-89.93019705556911 0.6758522740862943 97.2976363658783)" fill="none" stroke="black" stroke-width="1" clip-path="{"A":50,"B":0,"C":2000,"D":0,"direction":[0.9996876464081227,-1.5303303454010732e-18,-0.024992191160203066]} M -10000,NaN 10000,NaN 10000,-10000 -10000,-10000 Z"/>
  <ellipse cx="0.6151201108270832" cy="119.45168346153781" rx="13.164193988937669" ry="221.90280141072904" transform="rotate(-89.91420123343876 0.6151201108270832 119.45168346153781)" fill="none" stroke="black" stroke-width="1" clip-path="{"A":50,"B":0,"C":2000,"D":0,"direction":[0.9996876464081227,-1.5303303454010732e-18,-0.024992191160203066]} M -10000,NaN 10000,NaN 10000,-10000 -10000,-10000 Z"/>
  <ellipse cx="0.5460088203887098" cy="140.5179045197662" rx="14.59991177119815" ry="209.0656344550963" transform="rotate(-89.8989322250858 0.5460088203887098 140.5179045197662)" fill="none" stroke="black" stroke-width="1" clip-path="{"A":50,"B":0,"C":2000,"D":0,"direction":[0.9996876464081227,-1.5303303454010732e-18,-0.024992191160203066]} M -10000,NaN 10000,NaN 10000,-10000 -10000,-10000 Z"/>
  <ellipse cx="0.47123188230241964" cy="160.4985173814082" rx="15.503457869565574" ry="194.22277606240422" transform="rotate(-89.88438737987018 0.47123188230241964 160.4985173814082)" fill="none" stroke="black" stroke-width="1" clip-path="{"A":50,"B":0,"C":2000,"D":0,"direction":[0.9996876464081227,-1.5303303454010732e-18,-0.024992191160203066]} M -10000,NaN 10000,NaN 10000,-10000 -10000,-10000 Z"/>
  <ellipse cx="0.3937007873986819" cy="178.3937007874037" rx="15.76292106047864" ry="177.52763388469128" transform="rotate(-89.87130091251728 0.3937007873986819 178.3937007874037)" fill="none" stroke="black" stroke-width="1" clip-path="{"A":50,"B":0,"C":2000,"D":0,"direction":[0.9996876464081227,-1.5303303454010732e-18,-0.024992191160203066]} M -10000,NaN 10000,NaN 10000,-10000 -10000,-10000 Z"/>
  <ellipse cx="0.3164075272450023" cy="194.22133305191372" rx="15.396701750375854" ry="159.14984483449794" transform="rotate(-89.85967356388906 0.3164075272450023 194.22133305191372)" fill="none" stroke="black" stroke-width="1" clip-path="{"A":50,"B":0,"C":2000,"D":0,"direction":[0.9996876464081227,-1.5303303454010732e-18,-0.024992191160203066]} M -10000,NaN 10000,NaN 10000,-10000 -10000,-10000 Z"/>
  <ellipse cx="0.24230788344561918" cy="209.00800079421185" rx="14.510222241824254" ry="139.27289200122658" transform="rotate(-89.84876169773906 0.24230788344561918 209.00800079421185)" fill="none" stroke="black" stroke-width="1" clip-path="{"A":50,"B":0,"C":2000,"D":0,"direction":[0.9996876464081227,-1.5303303454010732e-18,-0.024992191160203066]} M -10000,NaN 10000,NaN 10000,-10000 -10000,-10000 Z"/>
  <ellipse cx="0.1742102544869636" cy="220.76652511965668" rx="13.004449954941213" ry="118.09178035656514" transform="rotate(-89.84004741516362 0.1742102544869636 220.76652511965668)" fill="none" stroke="black" stroke-width="1" clip-path="{"A":50,"B":0,"C":2000,"D":0,"direction":[0.9996876464081227,-1.5303303454010732e-18,-0.024992191160203066]} M -10000,NaN 10000,NaN 10000,-10000 -10000,-10000 Z"/>
  <ellipse cx="0.11467381348683532" cy="231.52979301819207" rx="11.071812700244033" ry="95.81090621131861" transform="rotate(-89.83204035335667 0.11467381348683532 231.52979301819207)" fill="none" stroke="black" stroke-width="1" clip-path="{"A":50,"B":0,"C":2000,"D":0,"direction":[0.9996876464081227,-1.5303303454010732e-18,-0.024992191160203066]} M -10000,NaN 10000,NaN 10000,-10000 -10000,-10000 Z"/>
  <ellipse cx="0.0659189745026628" cy="239.315092698082" rx="8.68093274539914" ry="72.64204084729408" transform="rotate(-89.82622928130114 0.0659189745026628 239.315092698082)" fill="none" stroke="black" stroke-width="1" clip-path="{"A":50,"B":0,"C":2000,"D":0,"direction":[0.9996876464081227,-1.5303303454010732e-18,-0.024992191160203066]} M -10000,NaN 10000,NaN 10000,-10000 -10000,-10000 Z"/>
  <ellipse cx="0.029752250882124038" cy="245.1457860299645" rx="5.976299420003357" ry="48.802574265528136" transform="rotate(-89.82186621561632 0.029752250882124038 245.1457860299645)" fill="none" stroke="black" stroke-width="1" clip-path="{"A":50,"B":0,"C":2000,"D":0,"direction":[0.9996876464081227,-1.5303303454010732e-18,-0.024992191160203066]} M -10000,NaN 10000,NaN 10000,-10000 -10000,-10000 Z"/>
  <ellipse cx="0.007506876792952309" cy="249.03738424614357" rx="3.050273327395453" ry="24.513903129055954" transform="rotate(-89.81894890169238 0.007506876792952309 249.03738424614357)" fill="none" stroke="black" stroke-width="1" clip-path="{"A":50,"B":0,"C":2000,"D":0,"direction":[0.9996876464081227,-1.5303303454010732e-18,-0.024992191160203066]} M -10000,NaN 10000,NaN 10000,-10000 -10000,-10000 Z"/>
  <line x1="-1.4210854715202004e-14" y1="250" x2="1.4210854715202004e-14" y2="250" fill="none" stroke="black" stroke-width="1"/>
  <ellipse cx="0.1146738134609978" cy="-11.073883028265662" rx="250.36566757946326" ry="231.42642390258877" transform="rotate(-3.493349225438921 0.1146738134609978 -11.073883028265662)" fill="none" stroke="black" stroke-width="1"/>
  <ellipse cx="-2.4870667664994817" cy="-11.021974752126251" rx="250.37560075630745" ry="229.78009666729915" transform="rotate(-16.512747274045534 -2.4870667664994817 -11.021974752126251)" fill="none" stroke="black" stroke-width="1"/>
  <ellipse cx="-4.977887457201191" cy="-10.866630030094933" rx="250.41224151831216" ry="225.98133296359757" transform="rotate(-27.892731945249395 -4.977887457201191 -10.866630030094933)" fill="none" stroke="black" stroke-width="1"/>
  <ellipse cx="-7.263694798679422" cy="-10.608995348414261" rx="250.47806617830037" ry="220.05486811657806" transform="rotate(-37.13926954410435 -7.263694798679422 -10.608995348414261)" fill="none" stroke="black" stroke-width="1"/>
  <ellipse cx="-9.257719322560709" cy="-10.251001280920608" rx="250.57245170461084" ry="212.04378284363108" transform="rotate(-44.37259481691677 -9.257719322560709 -10.251001280920608)" fill="none" stroke="black" stroke-width="1"/>
  <ellipse cx="-10.8836871189349" cy="-9.795389402745856" rx="250.69197825867866" ry="202.0098425623596" transform="rotate(-49.957748105829204 -10.8836871189349 -9.795389402745856)" fill="none" stroke="black" stroke-width="1"/>
  <ellipse cx="-12.078694579974924" cy="-9.245744673110337" rx="250.8315801825304" ry="190.03313220887065" transform="rotate(-54.27121557511536 -12.078694579974924 -9.245744673110337)" fill="none" stroke="black" stroke-width="1"/>
  <ellipse cx="-12.795685197039028" cy="-8.606528383824354" rx="250.98531680819087" ry="176.21210802956878" transform="rotate(-57.62028790199342 -12.795685197039028 -8.606528383824354)" fill="none" stroke="black" stroke-width="1"/>
  <ellipse cx="-13.005425599993849" cy="-7.883105938080543" rx="251.14678547533583" ry="160.66391894744447" transform="rotate(-60.2351127982583 -13.005425599993849 -7.883105938080543)" fill="none" stroke="black" stroke-width="1"/>
  <ellipse cx="-12.697880985316274" cy="-7.0817633215692055" rx="251.3093874709988" ry="143.52465289644667" transform="rotate(-62.282611260812644 -12.697880985316274 -7.0817633215692055)" fill="none" stroke="black" stroke-width="1"/>
  <ellipse cx="-11.882899977055754" cy="-6.209706235102635" rx="251.4665570457574" ry="124.94926586344708" transform="rotate(-63.88263947765275 -11.882899977055754 -6.209706235102635)" fill="none" stroke="black" stroke-width="1"/>
  <ellipse cx="-10.590137535262679" cy="-5.2750365254175575" rx="251.61198810193312" ry="105.11104049586164" transform="rotate(-65.12105871217929 -10.590137535262679 -5.2750365254175575)" fill="none" stroke="black" stroke-width="1"/>
  <ellipse cx="-8.868172524249847" cy="-4.286701783336292" rx="251.73986114225255" ry="84.20047864043471" transform="rotate(-66.0591909520541 -8.868172524249847 -4.286701783336292)" fill="none" stroke="black" stroke-width="1"/>
  <ellipse cx="-6.782813419357958" cy="-3.254415721030365" rx="251.8450620978603" ry="62.42357951757639" transform="rotate(-66.7403521524265 -6.782813419357958 -3.254415721030365)" fill="none" stroke="black" stroke-width="1"/>
  <ellipse cx="-4.414629328561432" cy="-2.1885490709520194" rx="251.9233817222473" ry="39.99950293382799" transform="rotate(-67.194248798762 -4.414629328561432 -2.1885490709520194)" fill="none" stroke="black" stroke-width="1"/>
  <ellipse cx="-1.8557905927033085" cy="-1.099993082893151" rx="251.971684323869" ry="17.15766619589872" transform="rotate(-67.43984761415959 -1.8557905927033085 -1.099993082893151)" fill="none" stroke="black" stroke-width="1"/>
  <ellipse cx="0.7936507936502399" cy="1.319739715371655e-12" rx="251.9880360459951" ry="5.8656289533355785" transform="rotate(-67.48713256228336 0.7936507936502399 1.319739715371655e-12)" fill="none" stroke="black" stroke-width="2"/>
</svg>