<svg width="600" height="600" viewBox="-300 -300 600 600" xmlns="http://www.w3.org/2000/svg">
  <ellipse cx="Infinity" cy="NaN" rx="Infinity" ry="Infinity" transform="rotate(0 Infinity NaN)" fill="none" stroke="black" stroke-width="1"/>
  <ellipse cx="0.007506876792952309" cy="-249.03738424614357" rx="3.050273327395453" ry="24.513903129055954" transform="rotate(89.81894890169238 0.007506876792952309 -249.03738424614357)" fill="none" stroke="black" stroke-width="1"/>
  <ellipse cx="0.029752250882124038" cy="-245.1457860299645" rx="5.976299420003357" ry="48.802574265528136" transform="rotate(89.82186621561632 0.029752250882124038 -245.1457860299645)" fill="none" stroke="black" stroke-width="1"/>
  <ellipse cx="0.0659189745026628" cy="-239.315092698082" rx="8.68093274539914" ry="72.64204084729408" transform="rotate(89.82622928130114 0.0659189745026628 -239.315092698082)" fill="none" stroke="black" stroke-width="1"/>
  <ellipse cx="0.11467381348683532" cy="-231.52979301819207" rx="11.071812700244033" ry="95.81090621131861" transform="rotate(89.83204035335667 0.11467381348683532 -231.52979301819207)" fill="none" stroke="black" stroke-width="1"/>
  <ellipse cx="0.1742102544869636" cy="-220.76652511965668" rx="13.004449954941213" ry="118.09178035656514" transform="rotate(89.84004741516362 0.1742102544869636 -220.76652511965668)" fill="none" stroke="black" stroke-width="1"/>
  <ellipse cx="0.24230788344561918" cy="-209.00800079421185" rx="14.510222241824254" ry="139.27289200122658" transform="rotate(89.84876169773906 0.24230788344561918 -209.00800079421185)" fill="none" stroke="black" stroke-width="1"/>
  <ellipse cx="0.3164075272450023" cy="-194.22133305191372" rx="15.396701750375854" ry="159.14984483449794" transform="rotate(89.85967356388906 0.3164075272450023 -194.22133305191372)" fill="none" stroke="black" stroke-width="1"/>
  <ellipse cx="0.3937007873986819" cy="-178.3937007874037" rx="15.76292106047864" ry="177.52763388469128" transform="rotate(89.87130091251728 0.3937007873986819 -178.3937007874037)" fill="none" stroke="black" stroke-width="1"/>
  <ellipse cx="0.47123188230241964" cy="-160.4985173814082" rx="15.503457869565574" ry="194.22277606240422" transform="rotate(89.88438737987018 0.47123188230241964 -160.4985173814082)" fill="none" stroke="black" stroke-width="1"/>
  <ellipse cx="0.5460088203887098" cy="-140.5179045197662" rx="14.59991177119815" ry="209.0656344550963" transform="rotate(89.8989322250858 0.5460088203887098 -140.5179045197662)" fill="none" stroke="black" stroke-width="1"/>
  <ellipse cx="0.6151201108332738" cy="-119.451683461538" rx="13.164193988937688" ry="221.9028014107473" transform="rotate(89.91420123343872 0.6151201108332738 -119.451683461538)" fill="none" stroke="black" stroke-width="1"/>
  <ellipse cx="0.6758522740817542" cy="-97.29763636587866" rx="11.232846381028862" ry="232.59946563905365" transform="rotate(89.93019705556925 0.6758522740817542 -97.29763636587866)" fill="none" stroke="black" stroke-width="1"/>
  <ellipse cx="0.7258028633089686" cy="-74.0596721804337" rx="8.856024912562033" ry="241.04168891476036" transform="rotate(89.94692064228103 0.7258028633089686 -74.0596721804337)" fill="none" stroke="black" stroke-width="1"/>
  <ellipse cx="0.7629833172952187" cy="-49.74772365094633" rx="6.097044113701301" ry="247.13846381204212" transform="rotate(89.96437173105501 0.7629833172952187 -49.74772365094633)" fill="none" stroke="black" stroke-width="1"/>
  <ellipse cx="0.7859060560549334" cy="-25.392953027998775" rx="3.1578325437286625" ry="250.82345138029308" transform="rotate(89.98182229419781 0.7859060560549334 -25.392953027998775)" fill="none" stroke="black" stroke-width="1"/>
  <ellipse cx="0.018014281306596942" cy="22627405447785.047" rx="NaN" ry="218.1627342692313" transform="rotate(-89.99999999999855 0.018014281306596942 22627405447785.047)" fill="none" stroke="black" stroke-width="1"/>
  <ellipse cx="0.785906056053675" cy="25.39295302799852" rx="3.1578325437286754" ry="250.8234513802771" transform="rotate(-89.9818222941979 0.785906056053675 25.39295302799852)" fill="none" stroke="black" stroke-width="1"/>
  <ellipse cx="0.762983317291928" cy="49.7477236509462" rx="6.097044113700764" ry="247.13846381200855" transform="rotate(-89.96437173105498 0.762983317291928 49.7477236509462)" fill="none" stroke="black" stroke-width="1"/>
  <ellipse cx="0.7258028633222825" cy="74.05967218043386" rx="8.85602491256251" ry="241.04168891477372" transform="rotate(-89.94692064228109 0.7258028633222825 74.05967218043386)" fill="none" stroke="black" stroke-width="1"/>
  <ellipse cx="0.6758522740862943" cy="97.2976363658783" rx="11.232846381028073" ry="232.5994656390358" transform="rotate(-89.93019705556911 0.6758522740862943 97.2976363658783)" fill="none" stroke="black" stroke-width="1"/>
  <ellipse cx="0.6151201108270832" cy="119.45168346153781" rx="13.164193988937669" ry="221.90280141072904" transform="rotate(-89.91420123343876 0.6151201108270832 119.45168346153781)" fill="none" stroke="black" stroke-width="1"/>
  <ellipse cx="0.5460088203887098" cy="140.5179045197662" rx="14.59991177119815" ry="209.0656344550963" transform="rotate(-89.8989322250858 0.5460088203887098 140.5179045197662)" fill="none" stroke="black" stroke-width="1"/>
  <ellipse cx="0.47123188230241964" cy="160.4985173814082" rx="15.503457869565574" ry="194.22277606240422" transform="rotate(-89.88438737987018 0.47123188230241964 160.4985173814082)" fill="none" stroke="black" stroke-width="1"/>
  <ellipse cx="0.3937007873986819" cy="178.3937007874037" rx="15.76292106047864" ry="177.52763388469128" transform="rotate(-89.87130091251728 0.3937007873986819 178.3937007874037)" fill="none" stroke="black" stroke-width="1"/>
  <ellipse cx="0.3164075272450023" cy="194.22133305191372" rx="15.396701750375854" ry="159.14984483449794" transform="rotate(-89.85967356388906 0.3164075272450023 194.22133305191372)" fill="none" stroke="black" stroke-width="1"/>
  <ellipse cx="0.24230788344561918" cy="209.00800079421185" rx="14.510222241824254" ry="139.27289200122658" transform="rotate(-89.84876169773906 0.24230788344561918 209.00800079421185)" fill="none" stroke="black" stroke-width="1"/>
  <ellipse cx="0.1742102544869636" cy="220.76652511965668" rx="13.004449954941213" ry="118.09178035656514" transform="rotate(-89.84004741516362 0.1742102544869636 220.76652511965668)" fill="none" stroke="black" stroke-width="1"/>
  <ellipse cx="0.11467381348683532" cy="231.52979301819207" rx="11.071812700244033" ry="95.81090621131861" transform="rotate(-89.83204035335667 0.11467381348683532 231.52979301819207)" fill="none" stroke="black" stroke-width="1"/>
  <ellipse cx="0.0659189745026628" cy="239.315092698082" rx="8.68093274539914" ry="72.64204084729408" transform="rotate(-89.82622928130114 0.0659189745026628 239.315092698082)" fill="none" stroke="black" stroke-width="1"/>
  <ellipse cx="0.029752250882124038" cy="245.1457860299645" rx="5.976299420003357" ry="48.802574265528136" transform="rotate(-89.82186621561632 0.029752250882124038 245.1457860299645)" fill="none" stroke="black" stroke-width="1"/>
  <ellipse cx="0.007506876792952309" cy="249.03738424614357" rx="3.050273327395453" ry="24.513903129055954" transform="rotate(-89.81894890169238 0.007506876792952309 249.03738424614357)" fill="none" stroke="black" stroke-width="1"/>
  <ellipse cx="Infinity" cy="NaN" rx="Infinity" ry="Infinity" transform="rotate(0 Infinity NaN)" fill="none" stroke="black" stroke-width="1"/>
  <ellipse cx="0.1146738134609978" cy="-11.073883028265662" rx="250.36566757946326" ry="231.42642390258877" transform="rotate(-3.493349225438921 0.1146738134609978 -11.073883028265662)" fill="none" stroke="black" stroke-width="1"/>
  <ellipse cx="-3.928571054411892" cy="-10.94591908066485" rx="250.39302660914743" ry="227.874251996813" transform="rotate(-23.259054832586585 -3.928571054411892 -10.94591908066485)" fill="none" stroke="black" stroke-width="1"/>
  <ellipse cx="-7.565656901988298" cy="-10.564350521978271" rx="250.48974943290312" ry="219.04601418650427" transform="rotate(-38.27849047465645 -7.565656901988298 -10.564350521978271)" fill="none" stroke="black" stroke-width="1"/>
  <ellipse cx="-10.45770365142718" cy="-9.936235489817859" rx="250.6553004767978" ry="205.09860728390734" transform="rotate(-48.49720357994062 -10.45770365142718 -9.936235489817859)" fill="none" stroke="black" stroke-width="1"/>
  <ellipse cx="-12.331867822665325" cy="-9.073603254534888" rx="250.87395341421566" ry="186.30167662027952" transform="rotate(-55.306164844562105 -12.331867822665325 -9.073603254534888)" fill="none" stroke="black" stroke-width="1"/>
  <ellipse cx="-13.007030501456915" cy="-7.993757027288192" rx="251.12297955462688" ry="163.036892216078" transform="rotate(-59.89205697119584 -13.007030501456915 -7.993757027288192)" fill="none" stroke="black" stroke-width="1"/>
  <ellipse cx="-12.412414966059192" cy="-6.719521902643035" rx="251.37718767927262" ry="135.8000450655177" transform="rotate(-63.01129791052906 -12.412414966059192 -6.719521902643035)" fill="none" stroke="black" stroke-width="1"/>
  <ellipse cx="-10.596846971414609" cy="-5.279298227857505" rx="251.61137908319304" ry="105.20134771899669" transform="rotate(-65.1162771974323 -10.596846971414609 -5.279298227857505)" fill="none" stroke="black" stroke-width="1"/>
  <ellipse cx="-7.726849516301824" cy="-3.7067910894956926" rx="251.802520779532" ry="71.95928610496009" transform="rotate(-66.4743586046051 -7.726849516301824 -3.7067910894956926)" fill="none" stroke="black" stroke-width="1"/>
  <ellipse cx="-4.072743808396362" cy="-2.0403284555797216" rx="251.9318399320522" ry="36.88583490832727" transform="rotate(-67.23995096594413 -4.072743808396362 -2.0403284555797216)" fill="none" stroke="black" stroke-width="1"/>
  <ellipse cx="0.016633193492832328" cy="-0.32174921154252806" rx="251.98662691321712" ry="0.862703778972091" transform="rotate(-67.49356342873874 0.016633193492832328 -0.32174921154252806)" fill="none" stroke="black" stroke-width="1"/>
  <line x1="-250" y1="0" x2="250" y2="0" stroke="black" stroke-width="3"/>
  <line x1="0" y1="-250" x2="0" y2="250" transform="rotate(22.5 0 0)" stroke="black" stroke-width="3"/>
</svg>