<svg width="600" height="600" viewBox="-300 -300 600 600" xmlns="http://www.w3.org/2000/svg">
  <line x1="-1.5308084989341916e-14" y1="-250" x2="1.5308084989341916e-14" y2="-250" fill="none" stroke="black" stroke-width="1"/>
  
  <path d="M 24.504285082810394 -249 A 2.4408612963505827 24.505462272844767 89.99999999995332 0 1 -24.5042850783977 -249" fill="none" stroke="black" stroke-width="1"/>
  
  <path d="M 48.77258050571575 -245 A 4.781532751968213 48.781864633658046 89.99999999998192 0 1 -48.77258050296189 -245" fill="none" stroke="black" stroke-width="1"/>
  
  <path d="M 72.57116931477206 -239 A 6.943654870632928 72.60176476937612 -89.9999999999853 0 1 -72.57116931278662 -239" fill="none" stroke="black" stroke-width="1"/>
  
  <path d="M 95.67085809166579 -231 A 8.852952135862521 95.74098849222399 89.99999999996987 0 1 -95.67085809072525 -231" fill="none" stroke="black" stroke-width="1"/>
  
  <path d="M 117.84918420756145 -220 A 10.393824835923127 117.98034204985014 89.99999999996615 0 1 -117.84918420536866 -220" fill="none" stroke="black" stroke-width="1"/>
  
  <path d="M 138.89255825291457 -208 A 11.591639402055149 139.10740743872952 -89.99999999999038 0 1 -138.89255825693695 -208" fill="none" stroke="black" stroke-width="1"/>
  
  <path d="M 158.59832104131576 -193 A 12.293265225125667 158.91843089759584 89.99999999999673 0 1 -158.5983210404728 -193" fill="none" stroke="black" stroke-width="1"/>
  
  <path d="M 176.77669529690726 -177 A 12.578683444224694 177.22030125209565 89.99999999998994 0 1 -176.7766952963962 -177" fill="none" stroke="black" stroke-width="1"/>
  
  <path d="M 193.2526133401099 -159 A 12.364751180819365 193.83259971904553 89.99999999999258 0 1 -193.2526133412684 -159" fill="none" stroke="black" stroke-width="1"/>
  
  <path d="M 207.8674030751625 -139 A 11.637885166042624 208.58968736605587 89.99999999998806 0 1 -207.86740307607937 -139" fill="none" stroke="black" stroke-width="1"/>
  
  <path d="M 220.48031608662527 -117.99999999999999 A 10.488246943017003 221.34278200105936 89.9999999999996 0 1 -220.48031608753354 -118.00000000000001" fill="none" stroke="black" stroke-width="1"/>
  
  <path d="M 230.9698831255267 -95.99999999999999 A 8.945598975472567 231.96196425548132 89.99999999999663 0 1 -230.96988313006943 -96.00000000000001" fill="none" stroke="black" stroke-width="1"/>
  
  <path d="M 239.23508393153065 -73.00000000000001 A 7.05022582261445 240.3380443507575 -89.99999999999838 0 1 -239.2350839345755 -72.99999999999999" fill="none" stroke="black" stroke-width="1"/>
  
  <path d="M 245.19632010115035 -49 A 4.852526253677591 246.38421760210252 -89.99999999999994 0 1 -245.19632010048872 -49" fill="none" stroke="black" stroke-width="1"/>
  
  <path d="M 248.79618166763808 -25 A 2.5128488871179337 250.037438841431 89.99999999999935 0 1 -248.79618166849735 -25" fill="none" stroke="black" stroke-width="1"/>
  
  <line x1="-250" y1="-1.7008983321491018e-14" x2="250" y2="1.3916440899401741e-14" fill="none" stroke="black" stroke-width="2"/>
  
  <path d="M 248.79618166865893 25 A 2.5128488871170784 250.0374388414322 89.99999999999962 0 1 -248.79618166741997 25" fill="none" stroke="black" stroke-width="1"/>
  
  <path d="M 245.19632010084106 49 A 4.852526253677413 246.38421760211455 89.99999999999909 0 1 -245.1963201008089 49" fill="none" stroke="black" stroke-width="1"/>
  
  <path d="M 239.23508393172966 73.00000000000001 A 7.050225822614361 240.33804435073117 89.99999999999802 0 1 -239.23508393435736 72.99999999999999" fill="none" stroke="black" stroke-width="1"/>
  
  <path d="M 230.96988312894888 96.00000000000001 A 8.94559897547065 231.96196425554191 89.99999999999544 0 1 -230.9698831266828 95.99999999999999" fill="none" stroke="black" stroke-width="1"/>
  
  <path d="M 220.48031608614892 118.00000000000001 A 10.48824694301756 221.3427820010708 89.99999999999957 0 1 -220.48031608803262 117.99999999999999" fill="none" stroke="black" stroke-width="1"/>
  
  <path d="M 207.8674030751625 139 A 11.637885166042624 208.58968736605587 -89.99999999998806 0 1 -207.86740307607937 139" fill="none" stroke="black" stroke-width="1"/>
  
  <path d="M 193.2526133401099 159 A 12.364751180819365 193.83259971904553 -89.99999999999258 0 1 -193.2526133412684 159" fill="none" stroke="black" stroke-width="1"/>
  
  <path d="M 176.77669529690726 177 A 12.578683444224694 177.22030125209565 -89.99999999998994 0 1 -176.7766952963962 177" fill="none" stroke="black" stroke-width="1"/>
  
  <path d="M 158.59832104131576 193 A 12.293265225125667 158.91843089759584 -89.99999999999673 0 1 -158.5983210404728 193" fill="none" stroke="black" stroke-width="1"/>
  
  <path d="M 138.89255825291457 208 A 11.591639402055149 139.10740743872952 89.99999999999038 0 1 -138.89255825693695 208" fill="none" stroke="black" stroke-width="1"/>
  
  <path d="M 117.84918420756145 220 A 10.393824835923127 117.98034204985014 -89.99999999996615 0 1 -117.84918420536866 220" fill="none" stroke="black" stroke-width="1"/>
  
  <path d="M 95.67085809166579 231 A 8.852952135862521 95.74098849222399 -89.99999999996987 0 1 -95.67085809072525 231" fill="none" stroke="black" stroke-width="1"/>
  
  <path d="M 72.57116931477206 239 A 6.943654870632928 72.60176476937612 89.9999999999853 0 1 -72.57116931278662 239" fill="none" stroke="black" stroke-width="1"/>
  
  <path d="M 48.77258050539755 245 A 4.78153275196701 48.78186463367622 -89.99999999996535 0 1 -48.772580503299615 245" fill="none" stroke="black" stroke-width="1"/>
  
  <path d="M 24.504285082810394 249 A 2.4408612963505827 24.505462272844767 -89.99999999995332 0 1 -24.5042850783977 249" fill="none" stroke="black" stroke-width="1"/>
  
  <line x1="-1.5308084989341916e-14" y1="250" x2="1.5308084989341916e-14" y2="250" fill="none" stroke="black" stroke-width="1"/>
  
  <line x1="-1.3916440899401741e-14" y1="-250" x2="1.7008983321491018e-14" y2="250" fill="none" stroke="black" stroke-width="1"/>
  
  <path d="M 1.509903313490213e-14 249.99999999999997 A 251.24726308603587 24.749401331673038 89.99999999999997 0 1 -1.509903313490213e-14 -249.99999999999997" fill="none" stroke="black" stroke-width="1"/>
  
  <path d="M -7.105427357601002e-14 249.99999999999974 A 251.21116978915128 49.246300249542294 -89.99999999999999 0 1 7.105427357601002e-14 -249.99999999999986" fill="none" stroke="black" stroke-width="1"/>
  
  <path d="M -1.509903313490213e-14 250.00000000000006 A 251.1525905811511 73.24187061551814 -89.99999999999994 0 1 1.509903313490213e-14 -249.99999999999972" fill="none" stroke="black" stroke-width="1"/>
  
  <path d="M -9.592326932761353e-14 249.99999999999994 A 251.0738208746837 96.49449008311257 89.99999999999993 0 1 9.592326932761353e-14 -249.99999999999986" fill="none" stroke="black" stroke-width="1"/>
  
  <path d="M -1.8118839761882555e-13 249.99999999999997 A 250.9779398103342 118.77298278906758 -89.99999999999986 0 1 1.8118839761882555e-13 -249.99999999999997" fill="none" stroke="black" stroke-width="1"/>
  
  <path d="M -1.5987211554602254e-14 250 A 250.86868392996945 139.85946508103552 -89.9999999999998 0 1 1.5987211554602254e-14 -250.0000000000002" fill="none" stroke="black" stroke-width="1"/>
  
  <path d="M 1.5987211554602254e-14 250.00000000000006 A 250.7502956471606 159.5517145907539 89.9999999999998 0 1 -1.5987211554602254e-14 -249.9999999999999" fill="none" stroke="black" stroke-width="1"/>
  
  <path d="M 1.2612133559741778e-13 250.00000000000006 A 250.62735355854286 177.66502039863008 89.99999999999987 0 1 -1.2612133559741778e-13 -250.00000000000017" fill="none" stroke="black" stroke-width="1"/>
  
  <path d="M 7.105427357601002e-14 249.99999999999994 A 250.50459212714964 194.03351059333306 89.99999999999999 0 1 -7.105427357601002e-14 -250.00000000000003" fill="none" stroke="black" stroke-width="1"/>
  
  <path d="M -1.8118839761882555e-13 249.99999999999991 A 250.38671831397767 208.5109895174516 -89.99999999999966 0 1 1.8118839761882555e-13 -250.00000000000003" fill="none" stroke="black" stroke-width="1"/>
  
  <path d="M -4.085620730620576e-14 249.99999999999991 A 250.27823239567215 220.97134730905825 89.9999999999998 0 1 4.085620730620576e-14 -249.99999999999991" fill="none" stroke="black" stroke-width="1"/>
  
  <path d="M -1.8118839761882555e-13 249.99999999999997 A 250.18325956941024 231.3086267689899 -89.99999999999925 0 1 1.8118839761882555e-13 -250.00000000000023" fill="none" stroke="black" stroke-width="1"/>
  
  <path d="M -1.509903313490213e-14 249.99999999999997 A 250.1053981074299 239.43684585535763 -89.99999999999955 0 1 1.509903313490213e-14 -249.99999999999986" fill="none" stroke="black" stroke-width="1"/>
  
  <path d="M -9.592326932761353e-14 250.00000000000006 A 250.04758887693976 245.28967792557683 89.99999999999962 0 1 9.592326932761353e-14 -250.00000000000006" fill="none" stroke="black" stroke-width="1"/>
  
  <path d="M 1.509903313490213e-14 249.9999999999986 A 250.0120100651411 248.8200867090315 89.99999999999906 0 1 -1.509903313490213e-14 -249.9999999999986" fill="none" stroke="black" stroke-width="1"/>
  
  <ellipse cx="6.776263578034403e-15" cy="-3.388131789017199e-15" rx="249.99999999999997" ry="249.99999999999997" transform="rotate(18.43494882292201 6.776263578034403e-15 -3.388131789017199e-15)" fill="none" stroke="black" stroke-width="1"/>
  
  <path d="M 1.509903313490213e-14 -250.00000000000117 A 250.01201006514367 248.82008670902889 -89.99999999999842 0 1 -1.509903313490213e-14 250.0000000000011" fill="none" stroke="black" stroke-width="1"/>
  
  <path d="M 9.592326932761353e-14 -249.9999999999995 A 250.0475888769392 245.28967792557748 89.99999999999814 0 1 -9.592326932761353e-14 249.99999999999937" fill="none" stroke="black" stroke-width="1"/>
  
  <path d="M -9.592326932761353e-14 -249.99999999999974 A 250.10539810742983 239.4368458553576 -89.99999999999977 0 1 9.592326932761353e-14 249.99999999999986" fill="none" stroke="black" stroke-width="1"/>
  
  <path d="M -2.0605739337042905e-13 -250.0000000000001 A 250.18325956941018 231.30862676899008 -89.99999999999933 0 1 2.0605739337042905e-13 250" fill="none" stroke="black" stroke-width="1"/>
  
  <path d="M -9.592326932761353e-14 -249.99999999999991 A 250.2782323956721 220.97134730905844 -89.99999999999972 0 1 9.592326932761353e-14 249.99999999999983" fill="none" stroke="black" stroke-width="1"/>
  
  <path d="M -1.5987211554602254e-14 -249.9999999999999 A 250.38671831397758 208.51098951745172 89.9999999999997 0 1 1.5987211554602254e-14 249.9999999999999" fill="none" stroke="black" stroke-width="1"/>
  
  <path d="M -1.5987211554602254e-14 -249.99999999999991 A 250.50459212714975 194.03351059333298 89.9999999999998 0 1 1.5987211554602254e-14 250.00000000000026" fill="none" stroke="black" stroke-width="1"/>
  
  <path d="M 1.5987211554602254e-14 -250.00000000000017 A 250.62735355854286 177.66502039863008 -89.99999999999959 0 1 -1.5987211554602254e-14 250.00000000000009" fill="none" stroke="black" stroke-width="1"/>
  
  <path d="M 4.085620730620576e-14 -250.00000000000003 A 250.75029564716053 159.55171459075382 89.99999999999972 0 1 -4.085620730620576e-14 249.9999999999998" fill="none" stroke="black" stroke-width="1"/>
  
  <path d="M 1.5987211554602254e-14 -250.00000000000014 A 250.86868392996942 139.85946508103555 -89.9999999999999 0 1 -1.5987211554602254e-14 250.00000000000003" fill="none" stroke="black" stroke-width="1"/>
  
  <path d="M -1.5987211554602254e-14 -250.0000000000002 A 250.97793981033422 118.77298278906758 89.9999999999999 0 1 1.5987211554602254e-14 249.99999999999974" fill="none" stroke="black" stroke-width="1"/>
  
  <path d="M 9.592326932761353e-14 -249.99999999999986 A 251.0738208746837 96.4944900831126 89.99999999999993 0 1 -9.592326932761353e-14 249.99999999999991" fill="none" stroke="black" stroke-width="1"/>
  
  <path d="M -7.105427357601002e-14 -249.99999999999994 A 251.1525905811512 73.24187061551815 89.99999999999993 0 1 7.105427357601002e-14 249.99999999999994" fill="none" stroke="black" stroke-width="1"/>
  
  <path d="M 3.9968028886505635e-14 -249.99999999999963 A 251.21116978915128 49.24630024954231 89.99999999999997 0 1 -3.9968028886505635e-14 249.99999999999997" fill="none" stroke="black" stroke-width="1"/>
  
  <path d="M -4.04121180963557e-14 -249.99999999999997 A 251.24726308603582 24.749401331673045 -89.99999999999999 0 1 4.04121180963557e-14 249.99999999999986" fill="none" stroke="black" stroke-width="1"/>
  
  <line x1="-1.7008983321491018e-14" y1="-250" x2="1.3916440899401741e-14" y2="250" fill="none" stroke="black" stroke-width="2"/>
  
</svg>