<svg width="600" height="600" viewBox="-300 -300 600 600" xmlns="http://www.w3.org/2000/svg">
  <line x1="-1.5308084989341916e-14" y1="-250" x2="1.5308084989341916e-14" y2="-250" fill="none" stroke="black" stroke-width="1"/>
  
  <path d="M 24.504285082881875 -249 A 2.465521271074129 24.505486178352616 -89.9999999999751 0 0 -24.504285082286803 -249" fill="none" stroke="black" stroke-width="1"/>
  
  <path d="M 48.77258050215597 -245 A 4.829868400861264 48.78205319347707 89.99999999995028 0 0 -48.77258050544478 -245" fill="none" stroke="black" stroke-width="1"/>
  
  <path d="M 72.57116931413736 -239 A 7.013912902581527 72.60238638180839 89.99999999999679 0 0 -72.57116931315045 -239" fill="none" stroke="black" stroke-width="1"/>
  
  <path d="M 95.67085809237584 -231 A 8.94264219063304 95.74241402144654 -89.99999999998326 0 0 -95.67085809020543 -231" fill="none" stroke="black" stroke-width="1"/>
  
  <path d="M 117.84918420657067 -220 A 10.49928773398493 117.9830096231905 -89.99999999999348 0 0 -117.8491842064777 -220" fill="none" stroke="black" stroke-width="1"/>
  
  <path d="M 138.89255825571183 -208 A 11.709462774390532 139.1117800806261 89.99999999998866 0 0 -138.89255825395315 -208" fill="none" stroke="black" stroke-width="1"/>
  
  <path d="M 158.59832104277584 -193 A 12.418458491624822 158.92495051635967 89.99999999998789 0 0 -158.59832103894541 -193" fill="none" stroke="black" stroke-width="1"/>
  
  <path d="M 176.7766952962293 -177 A 12.707037356916846 177.2293428735998 -89.99999999999885 0 0 -176.7766952971005 -177" fill="none" stroke="black" stroke-width="1"/>
  
  <path d="M 193.2526133412341 -159 A 12.491172270010427 193.8444299410358 89.9999999999961 0 0 -193.2526133401403 -159" fill="none" stroke="black" stroke-width="1"/>
  
  <path d="M 207.8674030741053 -139 A 11.757101399330264 208.6044307514414 -89.99999999999898 0 0 -207.86740307718355 -139" fill="none" stroke="black" stroke-width="1"/>
  
  <path d="M 220.48031608740854 -117.99999999999999 A 10.595875268772934 221.36039854099937 89.99999999999991 0 0 -220.48031608680563 -118.00000000000001" fill="none" stroke="black" stroke-width="1"/>
  
  <path d="M 230.96988312740143 -95.99999999999999 A 9.037538303853765 231.98224014648738 89.99999999999999 0 0 -230.96988312826227 -96.00000000000001" fill="none" stroke="black" stroke-width="1"/>
  
  <path d="M 239.2350839335078 -72.99999999999999 A 7.122776811307932 240.36059719751813 89.99999999999548 0 0 -239.23508393256813 -73.00000000000001" fill="none" stroke="black" stroke-width="1"/>
  
  <path d="M 245.19632010170065 -49 A 4.902508492984683 246.40851588423865 89.99999999999814 0 0 -245.19632009993197 -49" fill="none" stroke="black" stroke-width="1"/>
  
  <path d="M 248.79618166810428 -25 A 2.538746821948194 250.06283417719806 89.99999999999984 0 0 -248.7961816679661 -25" fill="none" stroke="black" stroke-width="1"/>
  
  <line x1="-250" y1="-1.7028094538706177e-14" x2="250" y2="1.3903673522429814e-14" fill="none" stroke="black" stroke-width="2"/>
  
  <path d="M 248.79618166745473 25 A 2.5387468219484237 250.06283417721306 -89.99999999999972 0 0 -248.79618166862878 25" fill="none" stroke="black" stroke-width="1"/>
  
  <path d="M 245.19632009917288 49 A 4.902508492983385 246.4085158842687 89.99999999999586 0 0 -245.19632010245488 49" fill="none" stroke="black" stroke-width="1"/>
  
  <path d="M 239.23508393240914 72.99999999999999 A 7.12277681130744 240.36059719751492 -89.99999999999501 0 0 -239.2350839336641 73.00000000000001" fill="none" stroke="black" stroke-width="1"/>
  
  <path d="M 230.96988312800983 95.99999999999999 A 9.037538303853195 231.9822401465122 -89.99999999999567 0 0 -230.9698831276699 96.00000000000001" fill="none" stroke="black" stroke-width="1"/>
  
  <path d="M 220.48031608707038 117.99999999999999 A 10.595875268772533 221.36039854093247 -89.99999999999163 0 0 -220.48031608707038 118.00000000000001" fill="none" stroke="black" stroke-width="1"/>
  
  <path d="M 207.8674030741053 139 A 11.757101399330264 208.6044307514414 89.99999999999898 0 0 -207.86740307718355 139" fill="none" stroke="black" stroke-width="1"/>
  
  <path d="M 193.2526133412341 159 A 12.491172270010427 193.8444299410358 -89.9999999999961 0 0 -193.2526133401403 159" fill="none" stroke="black" stroke-width="1"/>
  
  <path d="M 176.7766952962293 177 A 12.707037356916846 177.2293428735998 89.99999999999885 0 0 -176.7766952971005 177" fill="none" stroke="black" stroke-width="1"/>
  
  <path d="M 158.59832103990038 193 A 12.418458491623959 158.92495051640626 89.99999999999136 0 0 -158.59832104186222 193" fill="none" stroke="black" stroke-width="1"/>
  
  <path d="M 138.89255825571183 208 A 11.709462774390532 139.1117800806261 -89.99999999998866 0 0 -138.89255825395315 208" fill="none" stroke="black" stroke-width="1"/>
  
  <path d="M 117.84918420610815 220 A 10.499287733977141 117.98300962308042 89.99999999999802 0 0 -117.84918420673245 220" fill="none" stroke="black" stroke-width="1"/>
  
  <path d="M 95.67085809237584 231 A 8.94264219063304 95.74241402144654 89.99999999998326 0 0 -95.67085809020543 231" fill="none" stroke="black" stroke-width="1"/>
  
  <path d="M 72.57116931413736 239 A 7.013912902581527 72.60238638180839 -89.99999999999679 0 0 -72.57116931315045 239" fill="none" stroke="black" stroke-width="1"/>
  
  <path d="M 48.7725805037036 245 A 4.829868400885026 48.78205319371329 89.99999999998192 0 0 -48.77258050436243 245" fill="none" stroke="black" stroke-width="1"/>
  
  <path d="M 24.504285082881875 249 A 2.465521271074129 24.505486178352616 89.9999999999751 0 0 -24.504285082286803 249" fill="none" stroke="black" stroke-width="1"/>
  
  <line x1="-1.5308084989341916e-14" y1="250" x2="1.5308084989341916e-14" y2="250" fill="none" stroke="black" stroke-width="1"/>
  
  <line x1="-95.67085809127245" y1="230.96988312782167" x2="95.67085809127245" y2="-230.96988312782167" fill="none" stroke="black" stroke-width="1"/>
  
  <path d="M -95.67085809127408 230.96988312782588 A 251.27278129901416 24.754428988960512 -67.49999999999997 0 0 95.67085809127394 -230.96988312782557" fill="none" stroke="black" stroke-width="1"/>
  
  <path d="M -95.6708580912725 230.96988312782238 A 251.23594410280276 49.256014017043405 -67.5 0 0 95.67085809127246 -230.9698831278223" fill="none" stroke="black" stroke-width="1"/>
  
  <path d="M -95.67085809127222 230.9698831278217 A 251.1761582435813 73.25561700505128 -67.5 0 0 95.67085809127217 -230.96988312782156" fill="none" stroke="black" stroke-width="1"/>
  
  <path d="M -95.67085809127254 230.9698831278216 A 251.09576734092263 96.5113600667416 -67.49999999999997 0 0 95.67085809127259 -230.9698831278217" fill="none" stroke="black" stroke-width="1"/>
  
  <path d="M -95.67085809127282 230.9698831278214 A 250.99791499477348 118.79188968305859 -67.5 0 0 95.67085809127286 -230.96988312782148" fill="none" stroke="black" stroke-width="1"/>
  
  <path d="M -95.67085809127246 230.96988312782167 A 250.88641564874968 139.87923667075884 -67.5 0 0 95.67085809127246 -230.96988312782173" fill="none" stroke="black" stroke-width="1"/>
  
  <path d="M -95.67085809127242 230.96988312782176 A 250.76559973773726 159.57119108549284 -67.50000000000001 0 0 95.67085809127238 -230.96988312782162" fill="none" stroke="black" stroke-width="1"/>
  
  <path d="M -95.67085809127244 230.9698831278215 A 250.64014034223288 177.6831494823442 -67.49999999999999 0 0 95.67085809127244 -230.9698831278215" fill="none" stroke="black" stroke-width="1"/>
  
  <path d="M -95.67085809127236 230.9698831278225 A 250.51486906256352 194.0494313454647 -67.49999999999937 0 0 95.67085809127236 -230.96988312782247" fill="none" stroke="black" stroke-width="1"/>
  
  <path d="M -95.67085809127217 230.96988312782202 A 250.39458886162623 208.52409821173052 -67.49999999999979 0 0 95.67085809127217 -230.969883127822" fill="none" stroke="black" stroke-width="1"/>
  
  <path d="M -95.67085809127255 230.9698831278216 A 250.28389126654787 220.98133988768714 -67.49999999999987 0 0 95.67085809127259 -230.96988312782167" fill="none" stroke="black" stroke-width="1"/>
  
  <path d="M -95.67085809127221 230.96988312782182 A 250.18698465653233 231.3155149293171 -67.50000000000006 0 0 95.67085809127221 -230.96988312782182" fill="none" stroke="black" stroke-width="1"/>
  
  <path d="M -95.67085809127221 230.96988312782153 A 250.10753949694555 239.44094596475364 -67.49999999999993 0 0 95.67085809127221 -230.96988312782153" fill="none" stroke="black" stroke-width="1"/>
  
  <path d="M -95.67085809127273 230.96988312782204 A 250.04855540542303 245.29157420395694 -67.49999999999987 0 0 95.67085809127273 -230.96988312782204" fill="none" stroke="black" stroke-width="1"/>
  
  <path d="M -95.67085809127178 230.96988312782034 A 250.01225393604076 248.82057212577584 -67.50000000000023 0 0 95.67085809127178 -230.9698831278204" fill="none" stroke="black" stroke-width="1"/>
  
  <ellipse cx="-1.0164395367051602e-14" cy="-6.776263578034398e-15" rx="249.99999999999997" ry="249.99999999999997" transform="rotate(-16.002691604041747 -1.0164395367051602e-14 -6.776263578034398e-15)" fill="none" stroke="black" stroke-width="1"/>
  
  <path d="M 95.67085809127288 -230.96988312782273 A 250.01225393604338 248.8205721257732 -67.50000000000168 0 0 -95.6708580912729 230.96988312782275" fill="none" stroke="black" stroke-width="1"/>
  
  <path d="M 95.67085809127245 -230.96988312782224 A 250.0485554054231 245.29157420395697 -67.49999999999996 0 0 -95.67085809127244 230.96988312782224" fill="none" stroke="black" stroke-width="1"/>
  
  <path d="M 95.67085809127234 -230.9698831278221 A 250.10753949694615 239.44094596475318 -67.50000000000001 0 0 -95.67085809127232 230.9698831278221" fill="none" stroke="black" stroke-width="1"/>
  
  <path d="M 95.67085809127222 -230.96988312782156 A 250.18698465653213 231.31551492931717 -67.50000000000004 0 0 -95.67085809127224 230.96988312782162" fill="none" stroke="black" stroke-width="1"/>
  
  <path d="M 95.67085809127238 -230.96988312782182 A 250.28389126654798 220.98133988768723 -67.49999999999983 0 0 -95.6708580912724 230.96988312782182" fill="none" stroke="black" stroke-width="1"/>
  
  <path d="M 95.67085809127279 -230.96988312782162 A 250.39458886162618 208.52409821173057 -67.49999999999962 0 0 -95.6708580912728 230.96988312782167" fill="none" stroke="black" stroke-width="1"/>
  
  <path d="M 95.67085809127306 -230.96988312782216 A 250.51486906256358 194.04943134546465 -67.4999999999994 0 0 -95.67085809127309 230.96988312782227" fill="none" stroke="black" stroke-width="1"/>
  
  <path d="M 95.67085809127258 -230.96988312782167 A 250.64014034223305 177.68314948234408 -67.49999999999997 0 0 -95.67085809127254 230.96988312782156" fill="none" stroke="black" stroke-width="1"/>
  
  <path d="M 95.6708580912721 -230.9698831278221 A 250.76559973773743 159.5711910854928 -67.50000000000001 0 0 -95.67085809127207 230.96988312782202" fill="none" stroke="black" stroke-width="1"/>
  
  <path d="M 95.67085809127204 -230.9698831278218 A 250.88641564874956 139.87923667075884 -67.5 0 0 -95.670858091272 230.96988312782176" fill="none" stroke="black" stroke-width="1"/>
  
  <path d="M 95.67085809127205 -230.96988312782202 A 250.9979149947736 118.79188968305859 -67.50000000000001 0 0 -95.67085809127195 230.96988312782182" fill="none" stroke="black" stroke-width="1"/>
  
  <path d="M 95.67085809127259 -230.9698831278217 A 251.09576734092266 96.51136006674164 -67.49999999999997 0 0 -95.67085809127259 230.9698831278217" fill="none" stroke="black" stroke-width="1"/>
  
  <path d="M 95.6708580912724 -230.96988312782153 A 251.17615824358128 73.2556170050513 -67.5 0 0 -95.67085809127242 230.9698831278216" fill="none" stroke="black" stroke-width="1"/>
  
  <path d="M 95.67085809127222 -230.9698831278217 A 251.23594410280202 49.25601401704341 -67.5 0 0 -95.67085809127215 230.96988312782153" fill="none" stroke="black" stroke-width="1"/>
  
  <path d="M 95.67085809127285 -230.9698831278229 A 251.27278129901094 24.754428988960804 -67.49999999999997 0 0 -95.67085809127272 230.9698831278226" fill="none" stroke="black" stroke-width="1"/>
  
  <line x1="-95.67085809127245" y1="230.96988312782167" x2="95.67085809127245" y2="-230.96988312782167" fill="none" stroke="black" stroke-width="2"/>
  
</svg>