<svg width="600" height="600" viewBox="-300 -300 600 600" xmlns="http://www.w3.org/2000/svg">
  <line x1="-1.5308084989341916e-14" y1="-250" x2="1.5308084989341916e-14" y2="-250" fill="none" stroke="black" stroke-width="1"/>
  
  <path d="M 24.504285082810394 -249 A 2.4408612963505827 24.505462272844767 89.99999999995332 0 1 -24.5042850783977 -249" fill="none" stroke="black" stroke-width="1"/>
  
  <path d="M 48.77258050571575 -245 A 4.781532751968213 48.781864633658046 89.99999999998192 0 1 -48.77258050296189 -245" fill="none" stroke="black" stroke-width="1"/>
  
  <path d="M 72.57116931477206 -239 A 6.943654870632928 72.60176476937612 -89.9999999999853 0 1 -72.57116931278662 -239" fill="none" stroke="black" stroke-width="1"/>
  
  <path d="M 95.67085809166579 -231 A 8.852952135862521 95.74098849222399 89.99999999996987 0 1 -95.67085809072525 -231" fill="none" stroke="black" stroke-width="1"/>
  
  <path d="M 117.84918420756145 -220 A 10.393824835923127 117.98034204985014 89.99999999996615 0 1 -117.84918420536866 -220" fill="none" stroke="black" stroke-width="1"/>
  
  <path d="M 138.89255825291457 -208 A 11.591639402055149 139.10740743872952 -89.99999999999038 0 1 -138.89255825693695 -208" fill="none" stroke="black" stroke-width="1"/>
  
  <path d="M 158.59832104131576 -193 A 12.293265225125667 158.91843089759584 89.99999999999673 0 1 -158.5983210404728 -193" fill="none" stroke="black" stroke-width="1"/>
  
  <path d="M 176.77669529690726 -177 A 12.578683444224694 177.22030125209565 89.99999999998994 0 1 -176.7766952963962 -177" fill="none" stroke="black" stroke-width="1"/>
  
  <path d="M 193.2526133401099 -159 A 12.364751180819365 193.83259971904553 89.99999999999258 0 1 -193.2526133412684 -159" fill="none" stroke="black" stroke-width="1"/>
  
  <path d="M 207.8674030751625 -139 A 11.637885166042624 208.58968736605587 89.99999999998806 0 1 -207.86740307607937 -139" fill="none" stroke="black" stroke-width="1"/>
  
  <path d="M 220.48031608662527 -117.99999999999999 A 10.488246943017003 221.34278200105936 89.9999999999996 0 1 -220.48031608753354 -118.00000000000001" fill="none" stroke="black" stroke-width="1"/>
  
  <path d="M 230.9698831255267 -95.99999999999999 A 8.945598975472567 231.96196425548132 89.99999999999663 0 1 -230.96988313006943 -96.00000000000001" fill="none" stroke="black" stroke-width="1"/>
  
  <path d="M 239.23508393153065 -73.00000000000001 A 7.05022582261445 240.3380443507575 -89.99999999999838 0 1 -239.2350839345755 -72.99999999999999" fill="none" stroke="black" stroke-width="1"/>
  
  <path d="M 245.19632010115035 -49 A 4.852526253677591 246.38421760210252 -89.99999999999994 0 1 -245.19632010048872 -49" fill="none" stroke="black" stroke-width="1"/>
  
  <path d="M 248.79618166763808 -25 A 2.5128488871179337 250.037438841431 89.99999999999935 0 1 -248.79618166849735 -25" fill="none" stroke="black" stroke-width="1"/>
  
  <line x1="-250" y1="-1.7008983321491018e-14" x2="250" y2="1.3916440899401741e-14" fill="none" stroke="black" stroke-width="2"/>
  
  <path d="M 248.79618166865893 25 A 2.5128488871170784 250.0374388414322 89.99999999999962 0 1 -248.79618166741997 25" fill="none" stroke="black" stroke-width="1"/>
  
  <path d="M 245.19632010084106 49 A 4.852526253677413 246.38421760211455 89.99999999999909 0 1 -245.1963201008089 49" fill="none" stroke="black" stroke-width="1"/>
  
  <path d="M 239.23508393172966 73.00000000000001 A 7.050225822614361 240.33804435073117 89.99999999999802 0 1 -239.23508393435736 72.99999999999999" fill="none" stroke="black" stroke-width="1"/>
  
  <path d="M 230.96988312894888 96.00000000000001 A 8.94559897547065 231.96196425554191 89.99999999999544 0 1 -230.9698831266828 95.99999999999999" fill="none" stroke="black" stroke-width="1"/>
  
  <path d="M 220.48031608614892 118.00000000000001 A 10.48824694301756 221.3427820010708 89.99999999999957 0 1 -220.48031608803262 117.99999999999999" fill="none" stroke="black" stroke-width="1"/>
  
  <path d="M 207.8674030751625 139 A 11.637885166042624 208.58968736605587 -89.99999999998806 0 1 -207.86740307607937 139" fill="none" stroke="black" stroke-width="1"/>
  
  <path d="M 193.2526133401099 159 A 12.364751180819365 193.83259971904553 -89.99999999999258 0 1 -193.2526133412684 159" fill="none" stroke="black" stroke-width="1"/>
  
  <path d="M 176.77669529690726 177 A 12.578683444224694 177.22030125209565 -89.99999999998994 0 1 -176.7766952963962 177" fill="none" stroke="black" stroke-width="1"/>
  
  <path d="M 158.59832104131576 193 A 12.293265225125667 158.91843089759584 -89.99999999999673 0 1 -158.5983210404728 193" fill="none" stroke="black" stroke-width="1"/>
  
  <path d="M 138.89255825291457 208 A 11.591639402055149 139.10740743872952 89.99999999999038 0 1 -138.89255825693695 208" fill="none" stroke="black" stroke-width="1"/>
  
  <path d="M 117.84918420756145 220 A 10.393824835923127 117.98034204985014 -89.99999999996615 0 1 -117.84918420536866 220" fill="none" stroke="black" stroke-width="1"/>
  
  <path d="M 95.67085809166579 231 A 8.852952135862521 95.74098849222399 -89.99999999996987 0 1 -95.67085809072525 231" fill="none" stroke="black" stroke-width="1"/>
  
  <path d="M 72.57116931477206 239 A 6.943654870632928 72.60176476937612 89.9999999999853 0 1 -72.57116931278662 239" fill="none" stroke="black" stroke-width="1"/>
  
  <path d="M 48.77258050539755 245 A 4.78153275196701 48.78186463367622 -89.99999999996535 0 1 -48.772580503299615 245" fill="none" stroke="black" stroke-width="1"/>
  
  <path d="M 24.504285082810394 249 A 2.4408612963505827 24.505462272844767 -89.99999999995332 0 1 -24.5042850783977 249" fill="none" stroke="black" stroke-width="1"/>
  
  <line x1="-1.5308084989341916e-14" y1="250" x2="1.5308084989341916e-14" y2="250" fill="none" stroke="black" stroke-width="1"/>
  
  <line x1="-95.67085809127245" y1="230.96988312782167" x2="95.67085809127245" y2="-230.96988312782167" fill="none" stroke="black" stroke-width="1"/>
  
  <path d="M -95.67085809127369 230.9698831278247 A 251.24726308603914 24.74940133167227 -67.5 0 1 95.67085809127374 -230.9698831278248" fill="none" stroke="black" stroke-width="1"/>
  
  <path d="M -95.67085809127273 230.96988312782224 A 251.21116978915205 49.24630024954209 -67.49999999999999 0 1 95.67085809127273 -230.96988312782224" fill="none" stroke="black" stroke-width="1"/>
  
  <path d="M -95.6708580912721 230.96988312782156 A 251.15259058115083 73.24187061551815 -67.50000000000001 0 1 95.67085809127201 -230.96988312782133" fill="none" stroke="black" stroke-width="1"/>
  
  <path d="M -95.67085809127246 230.96988312782187 A 251.07382087468395 96.49449008311255 -67.50000000000001 0 1 95.67085809127246 -230.96988312782187" fill="none" stroke="black" stroke-width="1"/>
  
  <path d="M -95.67085809127212 230.96988312782187 A 250.9779398103342 118.7729827890676 -67.49999999999999 0 1 95.67085809127204 -230.9698831278217" fill="none" stroke="black" stroke-width="1"/>
  
  <path d="M -95.67085809127207 230.96988312782162 A 250.8686839299691 139.85946508103558 -67.49999999999997 0 1 95.67085809127201 -230.96988312782145" fill="none" stroke="black" stroke-width="1"/>
  
  <path d="M -95.6708580912726 230.9698831278216 A 250.75029564716067 159.5517145907538 -67.49999999999996 0 1 95.67085809127263 -230.9698831278217" fill="none" stroke="black" stroke-width="1"/>
  
  <path d="M -95.67085809127245 230.96988312782167 A 250.62735355854278 177.66502039863002 -67.5 0 1 95.67085809127245 -230.96988312782167" fill="none" stroke="black" stroke-width="1"/>
  
  <path d="M -95.67085809127289 230.9698831278223 A 250.5045921271504 194.03351059333218 -67.49999999999936 0 1 95.67085809127292 -230.96988312782238" fill="none" stroke="black" stroke-width="1"/>
  
  <path d="M -95.67085809127197 230.96988312782207 A 250.38671831397775 208.51098951745152 -67.49999999999963 0 1 95.67085809127194 -230.96988312782204" fill="none" stroke="black" stroke-width="1"/>
  
  <path d="M -95.67085809127207 230.96988312782176 A 250.27823239567212 220.97134730905822 -67.49999999999979 0 1 95.67085809127207 -230.96988312782176" fill="none" stroke="black" stroke-width="1"/>
  
  <path d="M -95.67085809127241 230.9698831278217 A 250.18325956941015 231.30862676899005 -67.50000000000001 0 1 95.67085809127241 -230.9698831278217" fill="none" stroke="black" stroke-width="1"/>
  
  <path d="M -95.67085809127248 230.9698831278216 A 250.1053981074299 239.43684585535763 -67.49999999999989 0 1 95.67085809127248 -230.9698831278216" fill="none" stroke="black" stroke-width="1"/>
  
  <path d="M -95.6708580912726 230.96988312782236 A 250.0475888769404 245.2896779255762 -67.49999999999987 0 1 95.67085809127262 -230.96988312782236" fill="none" stroke="black" stroke-width="1"/>
  
  <path d="M -95.67085809127079 230.96988312781795 A 250.01201006513844 248.82008670903406 -67.5 0 1 95.67085809127079 -230.96988312781792" fill="none" stroke="black" stroke-width="1"/>
  
  <ellipse cx="-1.0164395367051602e-14" cy="-6.776263578034398e-15" rx="249.99999999999997" ry="249.99999999999997" transform="rotate(-16.002691604041747 -1.0164395367051602e-14 -6.776263578034398e-15)" fill="none" stroke="black" stroke-width="1"/>
  
  <path d="M 95.67085809127177 -230.9698831278203 A 250.01201006514103 248.82008670903144 -67.49999999999943 0 1 -95.67085809127178 230.9698831278203" fill="none" stroke="black" stroke-width="1"/>
  
  <path d="M 95.67085809127212 -230.96988312782122 A 250.0475888769392 245.28967792557748 -67.500000000001 0 1 -95.67085809127212 230.9698831278212" fill="none" stroke="black" stroke-width="1"/>
  
  <path d="M 95.67085809127235 -230.9698831278219 A 250.10539810743018 239.43684585535743 -67.49999999999999 0 1 -95.67085809127236 230.9698831278219" fill="none" stroke="black" stroke-width="1"/>
  
  <path d="M 95.6708580912727 -230.96988312782176 A 250.1832595694103 231.30862676898997 -67.49999999999996 0 1 -95.6708580912727 230.9698831278217" fill="none" stroke="black" stroke-width="1"/>
  
  <path d="M 95.67085809127258 -230.96988312782167 A 250.27823239567226 220.97134730905816 -67.49999999999987 0 1 -95.67085809127259 230.96988312782167" fill="none" stroke="black" stroke-width="1"/>
  
  <path d="M 95.67085809127246 -230.96988312782182 A 250.38671831397784 208.51098951745143 -67.4999999999997 0 1 -95.67085809127248 230.96988312782184" fill="none" stroke="black" stroke-width="1"/>
  
  <path d="M 95.67085809127221 -230.96988312782256 A 250.50459212715032 194.0335105933322 -67.49999999999942 0 1 -95.67085809127218 230.96988312782244" fill="none" stroke="black" stroke-width="1"/>
  
  <path d="M 95.67085809127214 -230.96988312782193 A 250.6273535585428 177.66502039863008 -67.49999999999999 0 1 -95.6708580912721 230.96988312782182" fill="none" stroke="black" stroke-width="1"/>
  
  <path d="M 95.6708580912721 -230.96988312782196 A 250.7502956471607 159.55171459075382 -67.5 0 1 -95.67085809127207 230.96988312782184" fill="none" stroke="black" stroke-width="1"/>
  
  <path d="M 95.6708580912725 -230.96988312782176 A 250.86868392996942 139.8594650810355 -67.5 0 1 -95.67085809127248 230.96988312782176" fill="none" stroke="black" stroke-width="1"/>
  
  <path d="M 95.67085809127242 -230.96988312782176 A 250.97793981033433 118.77298278906751 -67.50000000000001 0 1 -95.67085809127242 230.96988312782176" fill="none" stroke="black" stroke-width="1"/>
  
  <path d="M 95.67085809127252 -230.9698831278217 A 251.0738208746839 96.49449008311258 -67.49999999999999 0 1 -95.67085809127252 230.9698831278217" fill="none" stroke="black" stroke-width="1"/>
  
  <path d="M 95.67085809127211 -230.9698831278216 A 251.152590581151 73.24187061551815 -67.50000000000001 0 1 -95.67085809127211 230.9698831278216" fill="none" stroke="black" stroke-width="1"/>
  
  <path d="M 95.67085809127232 -230.9698831278211 A 251.21116978915103 49.24630024954204 -67.50000000000003 0 1 -95.67085809127246 230.96988312782142" fill="none" stroke="black" stroke-width="1"/>
  
  <path d="M 95.67085809127343 -230.969883127824 A 251.2472630860385 24.749401331672406 -67.5 0 1 -95.67085809127354 230.96988312782432" fill="none" stroke="black" stroke-width="1"/>
  
  <line x1="-95.67085809127245" y1="230.96988312782167" x2="95.67085809127245" y2="-230.96988312782167" fill="none" stroke="black" stroke-width="2"/>
  
</svg>