<svg width="600" height="600" viewBox="-300 -300 600 600" xmlns="http://www.w3.org/2000/svg">
  <ellipse cx="Infinity" cy="NaN" rx="Infinity" ry="Infinity" transform="rotate(0 Infinity NaN)" fill="none" stroke="black" stroke-width="1"/>
  <ellipse cx="0.029752250882124038" cy="-245.1457860299645" rx="5.976299420003357" ry="48.802574265528136" transform="rotate(89.82186621561632 0.029752250882124038 -245.1457860299645)" fill="none" stroke="black" stroke-width="1"/>
  <ellipse cx="0.11467381348683532" cy="-231.52979301819207" rx="11.071812700244033" ry="95.81090621131861" transform="rotate(89.83204035335667 0.11467381348683532 -231.52979301819207)" fill="none" stroke="black" stroke-width="1"/>
  <ellipse cx="0.24230788344561918" cy="-209.00800079421185" rx="14.510222241824254" ry="139.27289200122658" transform="rotate(89.84876169773906 0.24230788344561918 -209.00800079421185)" fill="none" stroke="black" stroke-width="1"/>
  <ellipse cx="0.3937007873986819" cy="-178.3937007874037" rx="15.76292106047864" ry="177.52763388469128" transform="rotate(89.87130091251728 0.3937007873986819 -178.3937007874037)" fill="none" stroke="black" stroke-width="1"/>
  <ellipse cx="0.5460088203887098" cy="-140.5179045197662" rx="14.59991177119815" ry="209.0656344550963" transform="rotate(89.8989322250858 0.5460088203887098 -140.5179045197662)" fill="none" stroke="black" stroke-width="1"/>
  <ellipse cx="0.6758522740817542" cy="-97.29763636587866" rx="11.232846381028862" ry="232.59946563905365" transform="rotate(89.93019705556925 0.6758522740817542 -97.29763636587866)" fill="none" stroke="black" stroke-width="1"/>
  <ellipse cx="0.7629833172952187" cy="-49.74772365094633" rx="6.097044113701301" ry="247.13846381204212" transform="rotate(89.96437173105501 0.7629833172952187 -49.74772365094633)" fill="none" stroke="black" stroke-width="1"/>
  <ellipse cx="0.018014281306596942" cy="22627405447785.047" rx="NaN" ry="218.1627342692313" transform="rotate(-89.99999999999855 0.018014281306596942 22627405447785.047)" fill="none" stroke="black" stroke-width="1"/>
  <ellipse cx="0.762983317291928" cy="49.7477236509462" rx="6.097044113700764" ry="247.13846381200855" transform="rotate(-89.96437173105498 0.762983317291928 49.7477236509462)" fill="none" stroke="black" stroke-width="1"/>
  <ellipse cx="0.6758522740862943" cy="97.2976363658783" rx="11.232846381028073" ry="232.5994656390358" transform="rotate(-89.93019705556911 0.6758522740862943 97.2976363658783)" fill="none" stroke="black" stroke-width="1"/>
  <ellipse cx="0.5460088203887098" cy="140.5179045197662" rx="14.59991177119815" ry="209.0656344550963" transform="rotate(-89.8989322250858 0.5460088203887098 140.5179045197662)" fill="none" stroke="black" stroke-width="1"/>
  <ellipse cx="0.3937007873986819" cy="178.3937007874037" rx="15.76292106047864" ry="177.52763388469128" transform="rotate(-89.87130091251728 0.3937007873986819 178.3937007874037)" fill="none" stroke="black" stroke-width="1"/>
  <ellipse cx="0.24230788344561918" cy="209.00800079421185" rx="14.510222241824254" ry="139.27289200122658" transform="rotate(-89.84876169773906 0.24230788344561918 209.00800079421185)" fill="none" stroke="black" stroke-width="1"/>
  <ellipse cx="0.11467381348683532" cy="231.52979301819207" rx="11.071812700244033" ry="95.81090621131861" transform="rotate(-89.83204035335667 0.11467381348683532 231.52979301819207)" fill="none" stroke="black" stroke-width="1"/>
  <ellipse cx="0.029752250882124038" cy="245.1457860299645" rx="5.976299420003357" ry="48.802574265528136" transform="rotate(-89.82186621561632 0.029752250882124038 245.1457860299645)" fill="none" stroke="black" stroke-width="1"/>
  <ellipse cx="Infinity" cy="NaN" rx="Infinity" ry="Infinity" transform="rotate(0 Infinity NaN)" fill="none" stroke="black" stroke-width="1"/>
  <ellipse cx="0.1146738134609978" cy="-11.073883028265662" rx="250.36566757946326" ry="231.42642390258877" transform="rotate(-3.493349225438921 0.1146738134609978 -11.073883028265662)" fill="none" stroke="black" stroke-width="1"/>
  <ellipse cx="-7.565656901988298" cy="-10.564350521978271" rx="250.48974943290312" ry="219.04601418650427" transform="rotate(-38.27849047465645 -7.565656901988298 -10.564350521978271)" fill="none" stroke="black" stroke-width="1"/>
  <ellipse cx="-12.331867822665325" cy="-9.073603254534888" rx="250.87395341421566" ry="186.30167662027952" transform="rotate(-55.306164844562105 -12.331867822665325 -9.073603254534888)" fill="none" stroke="black" stroke-width="1"/>
  <ellipse cx="-12.412414966059192" cy="-6.719521902643035" rx="251.37718767927262" ry="135.8000450655177" transform="rotate(-63.01129791052906 -12.412414966059192 -6.719521902643035)" fill="none" stroke="black" stroke-width="1"/>
  <ellipse cx="-7.726849516301824" cy="-3.7067910894956926" rx="251.802520779532" ry="71.95928610496009" transform="rotate(-66.4743586046051 -7.726849516301824 -3.7067910894956926)" fill="none" stroke="black" stroke-width="1"/>
  <ellipse cx="0.016633193492832328" cy="-0.32174921154252806" rx="251.98662691321712" ry="0.862703778972091" transform="rotate(-67.49356342873874 0.016633193492832328 -0.32174921154252806)" fill="none" stroke="black" stroke-width="1"/>
  <ellipse cx="7.9249377744707035" cy="3.095946635505312" rx="251.85896099126134" ry="70.34928072806937" transform="rotate(-66.51820000855918 7.9249377744707035 3.095946635505312)" fill="none" stroke="black" stroke-width="1"/>
  <ellipse cx="13.038838508241914" cy="6.2016951322099425" rx="251.46876696710316" ry="134.49763948744985" transform="rotate(-63.11908422259709 13.038838508241914 6.2016951322099425)" fill="none" stroke="black" stroke-width="1"/>
  <line x1="-250" y1="0" x2="250" y2="0" stroke="black" stroke-width="3"/>
  <line x1="0" y1="-250" x2="0" y2="250" transform="rotate(22.5 0 0)" stroke="black" stroke-width="3"/>
</svg>