<svg width="600" height="600" viewBox="-300 -300 600 600" xmlns="http://www.w3.org/2000/svg">
  <line x1="-1.5308084989341916e-14" y1="-250" x2="1.5308084989341916e-14" y2="-250" fill="none" stroke="black" stroke-width="1"/>
  
  <path d="M 24.504285082881875 -249 A 2.465521271074129 24.505486178352616 -89.9999999999751 0 0 -24.504285082286803 -249" fill="none" stroke="black" stroke-width="1"/>
  
  <path d="M 48.77258050215597 -245 A 4.829868400861264 48.78205319347707 89.99999999995028 0 0 -48.77258050544478 -245" fill="none" stroke="black" stroke-width="1"/>
  
  <path d="M 72.57116931413736 -239 A 7.013912902581527 72.60238638180839 89.99999999999679 0 0 -72.57116931315045 -239" fill="none" stroke="black" stroke-width="1"/>
  
  <path d="M 95.67085809237584 -231 A 8.94264219063304 95.74241402144654 -89.99999999998326 0 0 -95.67085809020543 -231" fill="none" stroke="black" stroke-width="1"/>
  
  <path d="M 117.84918420657067 -220 A 10.49928773398493 117.9830096231905 -89.99999999999348 0 0 -117.8491842064777 -220" fill="none" stroke="black" stroke-width="1"/>
  
  <path d="M 138.89255825571183 -208 A 11.709462774390532 139.1117800806261 89.99999999998866 0 0 -138.89255825395315 -208" fill="none" stroke="black" stroke-width="1"/>
  
  <path d="M 158.59832104277584 -193 A 12.418458491624822 158.92495051635967 89.99999999998789 0 0 -158.59832103894541 -193" fill="none" stroke="black" stroke-width="1"/>
  
  <path d="M 176.7766952962293 -177 A 12.707037356916846 177.2293428735998 -89.99999999999885 0 0 -176.7766952971005 -177" fill="none" stroke="black" stroke-width="1"/>
  
  <path d="M 193.2526133412341 -159 A 12.491172270010427 193.8444299410358 89.9999999999961 0 0 -193.2526133401403 -159" fill="none" stroke="black" stroke-width="1"/>
  
  <path d="M 207.8674030741053 -139 A 11.757101399330264 208.6044307514414 -89.99999999999898 0 0 -207.86740307718355 -139" fill="none" stroke="black" stroke-width="1"/>
  
  <path d="M 220.48031608740854 -117.99999999999999 A 10.595875268772934 221.36039854099937 89.99999999999991 0 0 -220.48031608680563 -118.00000000000001" fill="none" stroke="black" stroke-width="1"/>
  
  <path d="M 230.96988312740143 -95.99999999999999 A 9.037538303853765 231.98224014648738 89.99999999999999 0 0 -230.96988312826227 -96.00000000000001" fill="none" stroke="black" stroke-width="1"/>
  
  <path d="M 239.2350839335078 -72.99999999999999 A 7.122776811307932 240.36059719751813 89.99999999999548 0 0 -239.23508393256813 -73.00000000000001" fill="none" stroke="black" stroke-width="1"/>
  
  <path d="M 245.19632010170065 -49 A 4.902508492984683 246.40851588423865 89.99999999999814 0 0 -245.19632009993197 -49" fill="none" stroke="black" stroke-width="1"/>
  
  <path d="M 248.79618166810428 -25 A 2.538746821948194 250.06283417719806 89.99999999999984 0 0 -248.7961816679661 -25" fill="none" stroke="black" stroke-width="1"/>
  
  <line x1="-250" y1="-1.7028094538706177e-14" x2="250" y2="1.3903673522429814e-14" fill="none" stroke="black" stroke-width="2"/>
  
  <path d="M 248.79618166745473 25 A 2.5387468219484237 250.06283417721306 -89.99999999999972 0 0 -248.79618166862878 25" fill="none" stroke="black" stroke-width="1"/>
  
  <path d="M 245.19632009917288 49 A 4.902508492983385 246.4085158842687 89.99999999999586 0 0 -245.19632010245488 49" fill="none" stroke="black" stroke-width="1"/>
  
  <path d="M 239.23508393240914 72.99999999999999 A 7.12277681130744 240.36059719751492 -89.99999999999501 0 0 -239.2350839336641 73.00000000000001" fill="none" stroke="black" stroke-width="1"/>
  
  <path d="M 230.96988312800983 95.99999999999999 A 9.037538303853195 231.9822401465122 -89.99999999999567 0 0 -230.9698831276699 96.00000000000001" fill="none" stroke="black" stroke-width="1"/>
  
  <path d="M 220.48031608707038 117.99999999999999 A 10.595875268772533 221.36039854093247 -89.99999999999163 0 0 -220.48031608707038 118.00000000000001" fill="none" stroke="black" stroke-width="1"/>
  
  <path d="M 207.8674030741053 139 A 11.757101399330264 208.6044307514414 89.99999999999898 0 0 -207.86740307718355 139" fill="none" stroke="black" stroke-width="1"/>
  
  <path d="M 193.2526133412341 159 A 12.491172270010427 193.8444299410358 -89.9999999999961 0 0 -193.2526133401403 159" fill="none" stroke="black" stroke-width="1"/>
  
  <path d="M 176.7766952962293 177 A 12.707037356916846 177.2293428735998 89.99999999999885 0 0 -176.7766952971005 177" fill="none" stroke="black" stroke-width="1"/>
  
  <path d="M 158.59832103990038 193 A 12.418458491623959 158.92495051640626 89.99999999999136 0 0 -158.59832104186222 193" fill="none" stroke="black" stroke-width="1"/>
  
  <path d="M 138.89255825571183 208 A 11.709462774390532 139.1117800806261 -89.99999999998866 0 0 -138.89255825395315 208" fill="none" stroke="black" stroke-width="1"/>
  
  <path d="M 117.84918420610815 220 A 10.499287733977141 117.98300962308042 89.99999999999802 0 0 -117.84918420673245 220" fill="none" stroke="black" stroke-width="1"/>
  
  <path d="M 95.67085809237584 231 A 8.94264219063304 95.74241402144654 89.99999999998326 0 0 -95.67085809020543 231" fill="none" stroke="black" stroke-width="1"/>
  
  <path d="M 72.57116931413736 239 A 7.013912902581527 72.60238638180839 -89.99999999999679 0 0 -72.57116931315045 239" fill="none" stroke="black" stroke-width="1"/>
  
  <path d="M 48.7725805037036 245 A 4.829868400885026 48.78205319371329 89.99999999998192 0 0 -48.77258050436243 245" fill="none" stroke="black" stroke-width="1"/>
  
  <path d="M 24.504285082881875 249 A 2.465521271074129 24.505486178352616 89.9999999999751 0 0 -24.504285082286803 249" fill="none" stroke="black" stroke-width="1"/>
  
  <line x1="-1.5308084989341916e-14" y1="250" x2="1.5308084989341916e-14" y2="250" fill="none" stroke="black" stroke-width="1"/>
  
  <line x1="-1.3903673522429814e-14" y1="-250" x2="1.7028094538706177e-14" y2="250" fill="none" stroke="black" stroke-width="1"/>
  
  <path d="M -1.509903313490213e-14 250.00000000000009 A 251.27278129901003 24.75442898896157 -89.99999999999994 0 0 1.509903313490213e-14 -250.0000000000002" fill="none" stroke="black" stroke-width="1"/>
  
  <path d="M 7.105427357601002e-14 249.9999999999996 A 251.23594410280182 49.256014017043626 89.99999999999999 0 0 -7.105427357601002e-14 -249.99999999999972" fill="none" stroke="black" stroke-width="1"/>
  
  <path d="M 1.509903313490213e-14 250.00000000000003 A 251.17615824358145 73.25561700505126 89.9999999999999 0 0 -1.509903313490213e-14 -249.99999999999997" fill="none" stroke="black" stroke-width="1"/>
  
  <path d="M 4.085620730620576e-14 250 A 251.0957673409226 96.51136006674166 -89.99999999999991 0 0 -4.085620730620576e-14 -250" fill="none" stroke="black" stroke-width="1"/>
  
  <path d="M -1.8118839761882555e-13 249.99999999999983 A 250.99791499477354 118.7918896830585 -89.99999999999977 0 0 1.8118839761882555e-13 -250.00000000000009" fill="none" stroke="black" stroke-width="1"/>
  
  <path d="M -1.2612133559741778e-13 249.99999999999991 A 250.88641564874953 139.87923667075881 -89.99999999999997 0 0 1.2612133559741778e-13 -249.99999999999991" fill="none" stroke="black" stroke-width="1"/>
  
  <path d="M -4.085620730620576e-14 249.99999999999991 A 250.76559973773723 159.5711910854928 89.99999999999972 0 0 4.085620730620576e-14 -250.00000000000003" fill="none" stroke="black" stroke-width="1"/>
  
  <path d="M 1.5987211554602254e-14 249.99999999999994 A 250.640140342233 177.6831494823442 89.9999999999997 0 0 -1.5987211554602254e-14 -249.99999999999994" fill="none" stroke="black" stroke-width="1"/>
  
  <path d="M -1.2612133559741778e-13 250.00000000000006 A 250.51486906256284 194.04943134546562 -89.99999999999987 0 0 1.2612133559741778e-13 -249.99999999999994" fill="none" stroke="black" stroke-width="1"/>
  
  <path d="M 4.085620730620576e-14 249.9999999999999 A 250.39458886162595 208.5240982117308 -89.99999999999972 0 0 -4.085620730620576e-14 -249.9999999999999" fill="none" stroke="black" stroke-width="1"/>
  
  <path d="M 2.0605739337042905e-13 249.99999999999997 A 250.28389126654793 220.98133988768706 -89.99999999999925 0 0 -2.0605739337042905e-13 -250.0000000000002" fill="none" stroke="black" stroke-width="1"/>
  
  <path d="M -2.0605739337042905e-13 249.99999999999997 A 250.18698465653227 231.31551492931703 89.99999999999955 0 0 2.0605739337042905e-13 -250.00000000000003" fill="none" stroke="black" stroke-width="1"/>
  
  <path d="M 7.105427357601002e-14 250.00000000000028 A 250.10753949694615 239.44094596475318 89.99999999999962 0 0 -7.105427357601002e-14 -250.0000000000004" fill="none" stroke="black" stroke-width="1"/>
  
  <path d="M 9.592326932761353e-14 249.9999999999998 A 250.04855540542243 245.29157420395757 -89.99999999999977 0 0 -9.592326932761353e-14 -249.99999999999991" fill="none" stroke="black" stroke-width="1"/>
  
  <path d="M -4.04121180963557e-14 250.00000000000128 A 250.0122539360435 248.8205721257733 89.99999999999653 0 0 4.04121180963557e-14 -250.00000000000128" fill="none" stroke="black" stroke-width="1"/>
  
  <ellipse cx="6.776263578034403e-15" cy="-3.388131789017199e-15" rx="249.99999999999997" ry="249.99999999999997" transform="rotate(18.43494882292201 6.776263578034403e-15 -3.388131789017199e-15)" fill="none" stroke="black" stroke-width="1"/>
  
  <path d="M 4.04121180963557e-14 -250.00000000000128 A 250.01225393604352 248.82057212577334 89.9999999999959 0 0 -4.04121180963557e-14 250.00000000000128" fill="none" stroke="black" stroke-width="1"/>
  
  <path d="M 3.9968028886505635e-14 -249.99999999999994 A 250.0485554054225 245.29157420395762 89.99999999999736 0 0 -3.9968028886505635e-14 249.99999999999994" fill="none" stroke="black" stroke-width="1"/>
  
  <path d="M 9.592326932761353e-14 -250.00000000000023 A 250.1075394969461 239.44094596475313 89.99999999999997 0 0 -9.592326932761353e-14 250.00000000000034" fill="none" stroke="black" stroke-width="1"/>
  
  <path d="M 7.105427357601002e-14 -250 A 250.1869846565323 231.31551492931706 -89.99999999999878 0 0 -7.105427357601002e-14 250" fill="none" stroke="black" stroke-width="1"/>
  
  <path d="M 1.5987211554602254e-14 -250.00000000000009 A 250.28389126654793 220.98133988768717 -89.9999999999999 0 0 -1.5987211554602254e-14 250.00000000000003" fill="none" stroke="black" stroke-width="1"/>
  
  <path d="M -1.5987211554602254e-14 -249.99999999999994 A 250.39458886162606 208.52409821173072 89.9999999999998 0 0 1.5987211554602254e-14 250.0000000000001" fill="none" stroke="black" stroke-width="1"/>
  
  <path d="M -9.592326932761353e-14 -250.00000000000006 A 250.51486906256284 194.04943134546562 -89.99999999999982 0 0 9.592326932761353e-14 249.99999999999994" fill="none" stroke="black" stroke-width="1"/>
  
  <path d="M -1.2612133559741778e-13 -249.9999999999999 A 250.64014034223314 177.6831494823442 89.99999999999997 0 0 1.2612133559741778e-13 250.00000000000023" fill="none" stroke="black" stroke-width="1"/>
  
  <path d="M -1.5987211554602254e-14 -250.00000000000006 A 250.7655997377373 159.57119108549284 89.9999999999998 0 0 1.5987211554602254e-14 250" fill="none" stroke="black" stroke-width="1"/>
  
  <path d="M -9.592326932761353e-14 -249.99999999999977 A 250.88641564874953 139.87923667075884 -89.99999999999993 0 0 9.592326932761353e-14 250.00000000000006" fill="none" stroke="black" stroke-width="1"/>
  
  <path d="M 1.5987211554602254e-14 -249.99999999999991 A 250.99791499477357 118.79188968305854 -89.9999999999998 0 0 -1.5987211554602254e-14 250.0000000000001" fill="none" stroke="black" stroke-width="1"/>
  
  <path d="M 4.085620730620576e-14 -250 A 251.0957673409226 96.51136006674166 89.99999999999991 0 0 -4.085620730620576e-14 250" fill="none" stroke="black" stroke-width="1"/>
  
  <path d="M -9.592326932761353e-14 -249.99999999999994 A 251.17615824358145 73.25561700505126 -89.99999999999997 0 0 9.592326932761353e-14 249.99999999999994" fill="none" stroke="black" stroke-width="1"/>
  
  <path d="M -9.592326932761353e-14 -249.99999999999977 A 251.23594410280188 49.256014017043626 -89.99999999999987 0 0 9.592326932761353e-14 249.99999999999966" fill="none" stroke="black" stroke-width="1"/>
  
  <path d="M 1.509903313490213e-14 -250.00000000000009 A 251.27278129901 24.75442898896157 -89.99999999999997 0 0 -1.509903313490213e-14 250.0000000000002" fill="none" stroke="black" stroke-width="1"/>
  
  <line x1="-1.7028094538706177e-14" y1="-250" x2="1.3903673522429814e-14" y2="250" fill="none" stroke="black" stroke-width="2"/>
  
</svg>